<svg width="165" height="46" viewBox="0 0 165 46" fill="none" xmlns="http://www.w3.org/2000/svg">
<path d="M19.692 22.66V19.456H17.82V16.9H16.056V14.668H13.608V16.9H11.844V19.456H9.972V22.66H19.692ZM19.692 30.004H9.972V37.672H8.208V39.328H3.312V37.672H1.584V16.432H3.456V13.48H5.328V10.924H7.164V8.836H8.928V6.964H20.7V8.836H22.428V10.924H24.264V13.48H26.172V16.432H28.08V37.672H26.316V39.328H21.42V37.672H19.692V30.004ZM44.0719 31.696H47.5279V33.388H49.1839V37.672H47.5279V39.328H32.0479V37.672H30.3559V33.388H32.0479V31.696H35.5039V14.524H32.0479V12.868H30.3559V8.584H32.0479V6.928H47.5279V8.584H49.1839V12.868H47.5279V14.524H44.0719V31.696Z" fill="#0062BC"/>
<path d="M90.4853 25.288V26.728H81.5573V31.984H92.2493V33.424H93.7253V37.456H92.2493V38.896H62.8013V37.456H61.3253V33.424H62.8013V31.984H73.4933V26.728H64.6733V25.288H63.2333V8.404H64.6733V6.964H90.2693V8.404H91.7093V12.364H90.2693V13.84H71.0453V19.852H90.4853V21.292H91.9253V25.288H90.4853ZM122.19 22.48V23.812H102.822V22.48H101.166V21.184H99.5098V19.744H97.9978V11.032H99.5098V9.592H101.166V8.26H102.822V6.964H122.19V8.26H123.846V9.592H125.502V11.032H127.014V19.744H125.502V21.184H123.846V22.48H122.19ZM107.178 16.288V17.584H117.834V16.288H119.274V14.488H117.834V13.156H107.178V14.488H105.738V16.288H107.178ZM108.438 32.848H97.7818V31.444H96.3058V27.484H97.7818V26.008H127.23V27.484H128.706V31.444H127.23V32.848H116.574V38.536H115.134V39.976H109.878V38.536H108.438V32.848ZM131.754 8.404H133.194V6.964H149.862V8.404H151.302V36.916H149.862V38.356H133.194V36.916H131.754V8.404ZM156.234 6.964H161.382V8.404H162.786V38.32H161.382V39.76H156.234V38.32H154.83V8.404H156.234V6.964ZM143.85 13.732H139.17V31.588H143.85V13.732Z" fill="#00305D"/>
</svg>
