<svg width="65" height="65" viewBox="0 0 65 65" fill="none" xmlns="http://www.w3.org/2000/svg">
<path d="M10.8332 27.0834L8.91839 28.9982L7.0036 27.0834L8.91839 25.1686L10.8332 27.0834ZM56.8749 48.7501C56.8749 49.4684 56.5895 50.1573 56.0816 50.6652C55.5737 51.1731 54.8848 51.4584 54.1665 51.4584C53.4482 51.4584 52.7593 51.1731 52.2514 50.6652C51.7435 50.1573 51.4582 49.4684 51.4582 48.7501H56.8749ZM22.4601 42.5399L8.91839 28.9982L12.748 25.1686L26.2896 38.7103L22.4601 42.5399ZM8.91839 25.1686L22.4601 11.627L26.2896 15.4565L12.748 28.9982L8.91839 25.1686ZM10.8332 24.3751H37.9165V29.7917H10.8332V24.3751ZM56.8749 43.3334V48.7501H51.4582V43.3334H56.8749ZM37.9165 24.3751C42.9446 24.3751 47.7667 26.3725 51.3221 29.9278C54.8775 33.4832 56.8749 38.3053 56.8749 43.3334H51.4582C51.4582 39.7419 50.0315 36.2976 47.4919 33.758C44.9524 31.2185 41.508 29.7917 37.9165 29.7917V24.3751Z" fill="white"/>
</svg>
