<svg width="110" height="110" viewBox="0 0 110 110" fill="none" xmlns="http://www.w3.org/2000/svg">
<circle cx="55" cy="55" r="55" fill="#4EE97F"/>
<path d="M83.8042 37.9502L76.5709 30.7169C76.3294 30.4802 76.0048 30.3477 75.6667 30.3477C75.3286 30.3477 75.004 30.4802 74.7626 30.7169L44.2792 61.2002C44.0378 61.4369 43.7132 61.5695 43.3751 61.5695C43.037 61.5695 42.7123 61.4369 42.4709 61.2002L35.2376 53.9669C34.9961 53.7302 34.6715 53.5977 34.3334 53.5977C33.9953 53.5977 33.6707 53.7302 33.4292 53.9669L26.1959 61.2002C25.9592 61.4417 25.8267 61.7663 25.8267 62.1044C25.8267 62.4425 25.9592 62.7671 26.1959 63.0086L42.4709 79.2836C42.7123 79.5202 43.037 79.6528 43.3751 79.6528C43.7132 79.6528 44.0378 79.5202 44.2792 79.2836L83.8042 39.7586C84.0409 39.5171 84.1735 39.1925 84.1735 38.8544C84.1735 38.5163 84.0409 38.1917 83.8042 37.9502Z" fill="white"/>
</svg>
