<svg width="66" height="66" viewBox="0 0 66 66" fill="none" xmlns="http://www.w3.org/2000/svg">
<mask id="mask0_423_240" style="mask-type:alpha" maskUnits="userSpaceOnUse" x="11" y="2" width="45" height="63">
<path d="M33.0001 64.1667C27.1654 64.1667 21.5696 61.8488 17.4438 57.723C13.318 53.5972 11.0001 48.0014 11.0001 42.1667C11.0001 27.5 33.0001 2.75 33.0001 2.75C33.0001 2.75 55.0001 27.5 55.0001 42.1667C55.0001 48.0014 52.6823 53.5972 48.5565 57.723C44.4307 61.8488 38.8349 64.1667 33.0001 64.1667Z" fill="#E97800"/>
</mask>
<g mask="url(#mask0_423_240)">
<path d="M33.0001 64.1667C27.1654 64.1667 21.5696 61.8488 17.4438 57.723C13.318 53.5972 11.0001 48.0014 11.0001 42.1667C11.0001 27.5 33.0001 2.75 33.0001 2.75C33.0001 2.75 55.0001 27.5 55.0001 42.1667C55.0001 48.0014 52.6823 53.5972 48.5565 57.723C44.4307 61.8488 38.8349 64.1667 33.0001 64.1667Z" fill="#E97800"/>
<rect x="8.25024" y="-2.75" width="49.5" height="38.5" fill="#E2E2E2"/>
</g>
</svg>
