<svg width="66" height="66" viewBox="0 0 66 66" fill="none" xmlns="http://www.w3.org/2000/svg">
<mask id="mask0_245_3474" style="mask-type:alpha" maskUnits="userSpaceOnUse" x="11" y="2" width="44" height="63">
<path d="M33 64.1667C27.1652 64.1667 21.5695 61.8488 17.4437 57.723C13.3179 53.5972 11 48.0014 11 42.1667C11 27.5 33 2.75 33 2.75C33 2.75 55 27.5 55 42.1667C55 48.0014 52.6822 53.5972 48.5564 57.723C44.4306 61.8488 38.8348 64.1667 33 64.1667Z" fill="#E97800"/>
</mask>
<g mask="url(#mask0_245_3474)">
<path d="M33 64.1667C27.1652 64.1667 21.5695 61.8488 17.4437 57.723C13.3179 53.5972 11 48.0014 11 42.1667C11 27.5 33 2.75 33 2.75C33 2.75 55 27.5 55 42.1667C55 48.0014 52.6822 53.5972 48.5564 57.723C44.4306 61.8488 38.8348 64.1667 33 64.1667Z" fill="white"/>
<rect x="8.25049" y="-2.75" width="49.5" height="38.5" fill="#F49229"/>
</g>
</svg>
