<svg width="90" height="90" viewBox="0 0 90 90" fill="none" xmlns="http://www.w3.org/2000/svg">
<path fill-rule="evenodd" clip-rule="evenodd" d="M11.1761 20.4892C11.1761 18.0191 12.1574 15.6502 13.904 13.9036C15.6506 12.157 18.0195 11.1758 20.4895 11.1758H67.0564C70.0205 11.1758 72.8632 12.3533 74.9591 14.4492C77.055 16.5451 78.2325 19.3878 78.2325 22.3518V74.5068C78.2327 75.1696 78.056 75.8205 77.7207 76.3923C77.3854 76.9641 76.9036 77.4361 76.325 77.7595C75.7464 78.083 75.092 78.2462 74.4293 78.2324C73.7666 78.2185 73.1196 78.0281 72.555 77.6808L62.3997 71.4296L52.2444 77.6808C51.6574 78.0419 50.9816 78.2332 50.2923 78.2332C49.6031 78.2332 48.9273 78.0419 48.3403 77.6808L38.185 71.4296L28.0296 77.6808C27.4651 78.0281 26.8181 78.2185 26.1554 78.2324C25.4927 78.2462 24.8383 78.083 24.2597 77.7595C23.6811 77.4361 23.1993 76.9641 22.864 76.3923C22.5287 75.8205 22.352 75.1696 22.3522 74.5068V52.1547H14.9015C13.9135 52.1547 12.9659 51.7622 12.2673 51.0635C11.5686 50.3649 11.1761 49.4173 11.1761 48.4293V20.4892ZM29.8029 67.8384L36.2329 63.8821C36.8199 63.5209 37.4957 63.3297 38.185 63.3297C38.8742 63.3297 39.55 63.5209 40.137 63.8821L50.2923 70.1332L60.4477 63.8821C61.0347 63.5209 61.7105 63.3297 62.3997 63.3297C63.089 63.3297 63.7648 63.5209 64.3518 63.8821L70.7818 67.8384V22.3518C70.7818 21.3638 70.3893 20.4163 69.6907 19.7176C68.992 19.019 68.0445 18.6265 67.0564 18.6265H29.6166C29.7408 19.23 29.8029 19.8509 29.8029 20.4892V67.8384ZM20.4895 18.6265C19.9955 18.6265 19.5217 18.8227 19.1724 19.1721C18.8231 19.5214 18.6269 19.9951 18.6269 20.4892V44.704H22.3522V20.4892C22.3522 19.9951 22.156 19.5214 21.8066 19.1721C21.4573 18.8227 20.9835 18.6265 20.4895 18.6265ZM37.2536 33.5279C37.2536 32.5399 37.6461 31.5923 38.3447 30.8937C39.0434 30.195 39.9909 29.8025 40.979 29.8025H59.6057C60.5938 29.8025 61.5413 30.195 62.24 30.8937C62.9386 31.5923 63.3311 32.5399 63.3311 33.5279C63.3311 34.5159 62.9386 35.4635 62.24 36.1621C61.5413 36.8608 60.5938 37.2532 59.6057 37.2532H40.979C39.9909 37.2532 39.0434 36.8608 38.3447 36.1621C37.6461 35.4635 37.2536 34.5159 37.2536 33.5279ZM37.2536 48.4293C37.2536 47.4413 37.6461 46.4937 38.3447 45.7951C39.0434 45.0964 39.9909 44.704 40.979 44.704H55.8804C56.8684 44.704 57.816 45.0964 58.5146 45.7951C59.2132 46.4937 59.6057 47.4413 59.6057 48.4293C59.6057 49.4173 59.2132 50.3649 58.5146 51.0635C57.816 51.7622 56.8684 52.1547 55.8804 52.1547H40.979C39.9909 52.1547 39.0434 51.7622 38.3447 51.0635C37.6461 50.3649 37.2536 49.4173 37.2536 48.4293Z" fill="white"/>
</svg>
