<svg width="66" height="66" viewBox="0 0 66 66" fill="none" xmlns="http://www.w3.org/2000/svg">
<path d="M56.1165 28.5368C54.7092 27.1301 52.8043 26.3348 50.8145 26.3231H44.66V25.6383C44.6522 25.0974 44.4338 24.5808 44.0513 24.1983C43.6688 23.8158 43.1522 23.5974 42.6113 23.5896H9.80101C9.2574 23.5896 8.73601 23.8053 8.35135 24.1895C7.9667 24.5736 7.75024 25.0947 7.74951 25.6383V47.5118C7.74951 50.9565 9.11791 54.2601 11.5537 56.6959C12.7598 57.902 14.1916 58.8587 15.7674 59.5114C17.3432 60.1641 19.0321 60.5001 20.7378 60.5001H31.6745C33.375 60.4917 35.0572 60.1478 36.6245 59.4881C38.2067 58.8549 39.6447 57.9086 40.8521 56.7059C42.0595 55.5033 43.0114 54.069 43.6508 52.4893V52.2968H50.732C52.7216 52.2824 54.6256 51.4857 56.0325 50.0788C57.4394 48.6719 58.2361 46.7679 58.2505 44.7783V33.8416C58.2631 32.8602 58.0809 31.8861 57.7146 30.9755C57.3483 30.065 56.8052 29.2361 56.1165 28.5368ZM54.23 44.7783C54.2222 45.6823 53.8586 46.5468 53.218 47.1846C52.9068 47.508 52.5329 47.7646 52.1192 47.9386C51.7055 48.1126 51.2606 48.2004 50.8118 48.1966H44.6325C44.6467 47.9685 44.6467 47.7399 44.6325 47.5118V30.4233H50.787C51.6909 30.4312 52.5555 30.794 53.1944 31.4334C53.8333 32.0728 54.1953 32.9377 54.2025 33.8416L54.23 44.7783ZM16.335 20.8258C15.9302 20.8247 15.5348 20.7039 15.1985 20.4786C14.8623 20.2533 14.6002 19.9335 14.4452 19.5596C14.2903 19.1856 14.2494 18.7742 14.3278 18.377C14.4062 17.9799 14.6003 17.6149 14.8858 17.3278C15.0533 17.1656 15.1845 16.9697 15.2708 16.7531C15.3186 16.5273 15.3186 16.2941 15.2708 16.0683C15.3222 15.8346 15.3222 15.5925 15.2708 15.3588C15.1845 15.1422 15.0533 14.9463 14.8858 14.7841C13.7875 13.666 13.1613 12.1684 13.1368 10.6013C13.1599 9.02588 13.7858 7.51916 14.8858 6.39108C15.0592 6.13726 15.2875 5.92568 15.5537 5.77196C15.82 5.61824 16.1173 5.52631 16.4239 5.50299C16.7304 5.47966 17.0383 5.52552 17.3247 5.63718C17.6111 5.74884 17.8688 5.92345 18.0786 6.14809C18.2885 6.37274 18.4452 6.64167 18.5371 6.93502C18.6291 7.22837 18.6539 7.53864 18.6098 7.84288C18.5657 8.14712 18.4538 8.43756 18.2823 8.69273C18.1109 8.9479 17.8843 9.16127 17.6193 9.31708C17.4531 9.47877 17.3228 9.67367 17.237 9.88908C17.1983 10.1249 17.1983 10.3655 17.237 10.6013C17.1964 10.8268 17.1964 11.0578 17.237 11.2833C17.3378 11.507 17.4753 11.7087 17.6495 11.8883C18.2028 12.4335 18.6405 13.0847 18.9363 13.8029C19.2321 14.5211 19.3799 15.2916 19.371 16.0683C19.3816 16.8488 19.2315 17.6231 18.9302 18.3432C18.6288 19.0632 18.1826 19.7135 17.6193 20.2538C17.2741 20.5931 16.818 20.7962 16.335 20.8258ZM25.2203 20.8258C24.6815 20.8291 24.1623 20.6242 23.771 20.2538C23.3871 19.8692 23.1715 19.348 23.1715 18.8046C23.1715 18.2612 23.3871 17.7399 23.771 17.3553C23.9458 17.187 24.0848 16.9852 24.1797 16.762C24.2747 16.5387 24.3236 16.2986 24.3236 16.056C24.3236 15.8133 24.2747 15.5732 24.1797 15.35C24.0848 15.1267 23.9458 14.9249 23.771 14.7566C23.2285 14.2089 22.8012 13.5581 22.5143 12.8426C22.2086 12.1301 22.051 11.3629 22.051 10.5876C22.051 9.81228 22.2086 9.04508 22.5143 8.33258C22.8168 7.60933 23.2513 6.94933 23.7985 6.39108C23.9722 6.13784 24.2005 5.92682 24.4665 5.77357C24.7326 5.62032 25.0297 5.52875 25.3359 5.50562C25.6421 5.48249 25.9495 5.52838 26.2356 5.63992C26.5217 5.75146 26.7791 5.92579 26.9888 6.15006C27.1986 6.37433 27.3553 6.64282 27.4474 6.93573C27.5395 7.22864 27.5647 7.53849 27.5212 7.84244C27.4776 8.14639 27.3663 8.43668 27.1956 8.6919C27.0249 8.94712 26.7991 9.16077 26.5348 9.31708C26.3676 9.4785 26.2364 9.67343 26.1498 9.88908C26.1111 10.1249 26.1111 10.3655 26.1498 10.6013C26.1092 10.8268 26.1092 11.0578 26.1498 11.2833C26.2524 11.507 26.3899 11.7087 26.5623 11.8883C27.6659 12.9951 28.2857 14.4943 28.2857 16.0573C28.2857 17.6203 27.6659 19.1196 26.5623 20.2263C26.2052 20.5864 25.7267 20.8002 25.2203 20.8258ZM34.7628 20.8258C34.358 20.8247 33.9626 20.7039 33.6263 20.4786C33.29 20.2533 33.0279 19.9335 32.873 19.5596C32.718 19.1856 32.6772 18.7742 32.7556 18.377C32.834 17.9799 33.0281 17.6149 33.3135 17.3278C33.481 17.1656 33.6122 16.9697 33.6985 16.7531C33.7464 16.5273 33.7464 16.2941 33.6985 16.0683C33.75 15.8346 33.75 15.5925 33.6985 15.3588C33.6122 15.1422 33.481 14.9463 33.3135 14.7841C32.2055 13.6725 31.5775 12.1708 31.5645 10.6013C31.5551 9.81759 31.7053 9.04013 32.006 8.31631C32.3066 7.59248 32.7515 6.93744 33.3135 6.39108C33.7032 6.03395 34.2158 5.84104 34.7442 5.85257C35.2727 5.86409 35.7764 6.07917 36.1501 6.45295C36.5239 6.82673 36.739 7.33036 36.7505 7.85884C36.7621 8.38732 36.5691 8.89986 36.212 9.28958C36.0242 9.44908 35.8827 9.65614 35.8023 9.88908C35.7613 10.1155 35.7613 10.3474 35.8023 10.5738C35.7613 10.8002 35.7613 11.0322 35.8023 11.2586C35.8934 11.4866 36.0344 11.6914 36.2148 11.8581C36.7718 12.4009 37.2117 13.0521 37.5073 13.7715C37.8029 14.4909 37.948 15.2632 37.9335 16.0408C37.939 16.8191 37.7905 17.5918 37.4963 18.3123C37.1838 19.0207 36.7491 19.6686 36.212 20.2263C35.8235 20.6043 35.3048 20.8189 34.7628 20.8258Z" fill="#E97800"/>
</svg>
