<svg width="294" height="98" viewBox="0 0 294 98" fill="none" xmlns="http://www.w3.org/2000/svg">
<path opacity="0.8" d="M45.7594 9.53382C46.7344 6.53298 50.9798 6.53298 51.9549 9.53382L59.095 31.5088C59.531 32.8508 60.7816 33.7595 62.1927 33.7595H85.2986C88.4539 33.7595 89.7658 37.7971 87.2131 39.6517L68.52 53.233C67.3784 54.0624 66.9008 55.5326 67.3368 56.8746L74.4769 78.8496C75.452 81.8504 72.0174 84.3458 69.4647 82.4912L50.7716 68.9099C49.6301 68.0805 48.0842 68.0805 46.9426 68.9099L28.2496 82.4912C25.6969 84.3458 22.2623 81.8504 23.2374 78.8496L30.3775 56.8746C30.8135 55.5326 30.3358 54.0624 29.1942 53.233L10.5012 39.6517C7.94853 37.7971 9.26042 33.7595 12.4157 33.7595H35.5216C36.9327 33.7595 38.1833 32.8508 38.6193 31.5088L45.7594 9.53382Z" fill="#FFB300"/>
<path d="M143.474 9.53382C144.449 6.53298 148.694 6.53298 149.669 9.53382L156.809 31.5088C157.245 32.8508 158.496 33.7595 159.907 33.7595H183.013C186.168 33.7595 187.48 37.7971 184.927 39.6517L166.234 53.233C165.093 54.0624 164.615 55.5326 165.051 56.8746L172.191 78.8496C173.166 81.8504 169.732 84.3458 167.179 82.4912L148.486 68.9099C147.344 68.0805 145.799 68.0805 144.657 68.9099L125.964 82.4912C123.411 84.3458 119.977 81.8504 120.952 78.8496L128.092 56.8746C128.528 55.5326 128.05 54.0624 126.909 53.233L108.216 39.6517C105.663 37.7971 106.975 33.7595 110.13 33.7595H133.236C134.647 33.7595 135.898 32.8508 136.334 31.5088L143.474 9.53382Z" fill="#FFB200"/>
<path d="M241.188 9.53382C242.163 6.53298 246.408 6.53298 247.383 9.53382L254.523 31.5088C254.959 32.8508 256.21 33.7595 257.621 33.7595H280.727C283.882 33.7595 285.194 37.7971 282.642 39.6517L263.949 53.233C262.807 54.0624 262.329 55.5326 262.765 56.8746L269.905 78.8496C270.88 81.8504 267.446 84.3458 264.893 82.4912L246.2 68.9099C245.059 68.0805 243.513 68.0805 242.371 68.9099L223.678 82.4912C221.125 84.3458 217.691 81.8504 218.666 78.8496L225.806 56.8746C226.242 55.5326 225.764 54.0624 224.623 53.233L205.93 39.6517C203.377 37.7971 204.689 33.7595 207.844 33.7595H230.95C232.361 33.7595 233.612 32.8508 234.048 31.5088L241.188 9.53382Z" fill="#FFFBF1"/>
</svg>
