<svg width="66" height="66" viewBox="0 0 66 66" fill="none" xmlns="http://www.w3.org/2000/svg">
<mask id="mask0_443_378" style="mask-type:alpha" maskUnits="userSpaceOnUse" x="11" y="2" width="44" height="63">
<path d="M33 64.1667C27.1652 64.1667 21.5695 61.8488 17.4437 57.723C13.3179 53.5972 11 48.0014 11 42.1667C11 27.5 33 2.75 33 2.75C33 2.75 55 27.5 55 42.1667C55 48.0014 52.6822 53.5972 48.5564 57.723C44.4306 61.8488 38.8348 64.1667 33 64.1667Z" fill="#E97800"/>
</mask>
<g mask="url(#mask0_443_378)">
<path d="M33.4995 66.0368C27.6647 66.0368 22.069 63.7189 17.9432 59.5931C13.8174 55.4673 11.4995 49.8715 11.4995 44.0368C11.4995 29.3701 33.4995 4.62012 33.4995 4.62012C33.4995 4.62012 55.4995 29.3701 55.4995 44.0368C55.4995 49.8715 53.1817 55.4673 49.0559 59.5931C44.9301 63.7189 39.3343 66.0368 33.4995 66.0368Z" fill="white"/>
<rect x="6" y="2.62012" width="55" height="49.5" fill="#F49229"/>
</g>
</svg>
