<svg width="66" height="66" viewBox="0 0 66 66" fill="none" xmlns="http://www.w3.org/2000/svg">
<mask id="mask0_423_169" style="mask-type:alpha" maskUnits="userSpaceOnUse" x="11" y="2" width="45" height="63">
<path d="M33.0002 64.1667C27.1655 64.1667 21.5697 61.8488 17.4439 57.723C13.3181 53.5972 11.0002 48.0014 11.0002 42.1667C11.0002 27.5 33.0002 2.75 33.0002 2.75C33.0002 2.75 55.0002 27.5 55.0002 42.1667C55.0002 48.0014 52.6824 53.5972 48.5566 57.723C44.4308 61.8488 38.835 64.1667 33.0002 64.1667Z" fill="#E97800"/>
</mask>
<g mask="url(#mask0_423_169)">
<path d="M33.0002 64.1667C27.1655 64.1667 21.5697 61.8488 17.4439 57.723C13.3181 53.5972 11.0002 48.0014 11.0002 42.1667C11.0002 27.5 33.0002 2.75 33.0002 2.75C33.0002 2.75 55.0002 27.5 55.0002 42.1667C55.0002 48.0014 52.6824 53.5972 48.5566 57.723C44.4308 61.8488 38.835 64.1667 33.0002 64.1667Z" fill="#E97800"/>
<rect x="5.50049" width="55" height="49.5" fill="#E2E2E2"/>
</g>
</svg>
