<svg width="90" height="90" viewBox="0 0 90 90" fill="none" xmlns="http://www.w3.org/2000/svg">
<path fill-rule="evenodd" clip-rule="evenodd" d="M33.5286 7.4502C35.6427 7.45008 37.7326 7.8998 39.6595 8.76947C41.5864 9.63915 43.3062 10.9089 44.7047 12.4943C46.1031 10.9089 47.8229 9.63915 49.7499 8.76947C51.6768 7.8998 53.7667 7.45008 55.8807 7.4502H57.7434C59.2255 7.4502 60.6468 8.03893 61.6947 9.08689C62.7427 10.1349 63.3314 11.5562 63.3314 13.0382V14.9009C63.3314 17.6167 62.605 20.1611 61.3384 22.3516H70.7822C72.7582 22.3516 74.6533 23.1366 76.0506 24.5339C77.4479 25.9311 78.2329 27.8263 78.2329 29.8023V40.9784C78.2328 42.2862 77.8885 43.571 77.2346 44.7036C76.5807 45.8362 75.6401 46.7768 74.5075 47.4307V67.0558C74.5075 70.0199 73.33 72.8626 71.2341 74.9585C69.1382 77.0544 66.2955 78.2319 63.3314 78.2319H26.0779C23.1138 78.2319 20.2712 77.0544 18.1753 74.9585C16.0793 72.8626 14.9019 70.0199 14.9019 67.0558V47.4307C13.7692 46.7768 12.8287 45.8362 12.1748 44.7036C11.5208 43.571 11.1765 42.2862 11.1765 40.9784V29.8023C11.1765 27.8263 11.9615 25.9311 13.3588 24.5339C14.7561 23.1366 16.6512 22.3516 18.6272 22.3516H28.071C26.7643 20.086 26.0769 17.5163 26.0779 14.9009V13.0382C26.0779 11.5562 26.6667 10.1349 27.7146 9.08689C28.7626 8.03893 30.1839 7.4502 31.666 7.4502H33.5286ZM67.0568 48.4291H48.43V70.7812H63.3314L63.7673 70.7551C64.5989 70.657 65.3732 70.2817 65.9652 69.6896C66.5573 69.0975 66.9327 68.3233 67.0307 67.4917L67.0568 67.0558V48.4291ZM40.9793 48.4291H22.3526V67.0558C22.3527 67.9683 22.6877 68.849 23.294 69.5309C23.9004 70.2127 24.7359 70.6484 25.6421 70.7551L26.0779 70.7812H40.9793V48.4291ZM70.7822 29.8023H48.43V40.9784H70.7822V29.8023ZM40.9793 29.8023H18.6272V40.9784H40.9793V29.8023ZM33.5286 14.9009C33.5286 16.877 34.3136 18.7721 35.7109 20.1693C37.1082 21.5666 39.0033 22.3516 40.9793 22.3516C40.9793 20.3756 40.1943 18.4804 38.7971 17.0832C37.3998 15.6859 35.5047 14.9009 33.5286 14.9009ZM55.8807 14.9009C53.9047 14.9009 52.0096 15.6859 50.6123 17.0832C49.215 18.4804 48.43 20.3756 48.43 22.3516C50.4061 22.3516 52.3012 21.5666 53.6985 20.1693C55.0958 18.7721 55.8807 16.877 55.8807 14.9009Z" fill="white"/>
</svg>
