<svg width="56" height="56" viewBox="0 0 56 56" fill="none" xmlns="http://www.w3.org/2000/svg">
<path d="M42.7005 13.3229C42.4847 13.1066 42.2282 12.935 41.946 12.8179C41.6637 12.7008 41.3611 12.6405 41.0555 12.6405C40.7499 12.6405 40.4473 12.7008 40.1651 12.8179C39.8828 12.935 39.6264 13.1066 39.4105 13.3229L28.0005 24.7095L16.5905 13.2995C16.3745 13.0835 16.118 12.9122 15.8358 12.7952C15.5535 12.6783 15.251 12.6182 14.9455 12.6182C14.64 12.6182 14.3375 12.6783 14.0553 12.7952C13.773 12.9122 13.5165 13.0835 13.3005 13.2995C13.0845 13.5156 12.9131 13.772 12.7962 14.0543C12.6793 14.3365 12.6191 14.639 12.6191 14.9445C12.6191 15.2501 12.6793 15.5526 12.7962 15.8348C12.9131 16.1171 13.0845 16.3735 13.3005 16.5895L24.7105 27.9995L13.3005 39.4095C13.0845 39.6256 12.9131 39.882 12.7962 40.1643C12.6793 40.4465 12.6191 40.749 12.6191 41.0545C12.6191 41.36 12.6793 41.6626 12.7962 41.9448C12.9131 42.2271 13.0845 42.4835 13.3005 42.6995C13.5165 42.9156 13.773 43.0869 14.0553 43.2038C14.3375 43.3207 14.64 43.3809 14.9455 43.3809C15.251 43.3809 15.5535 43.3207 15.8358 43.2038C16.118 43.0869 16.3745 42.9156 16.5905 42.6995L28.0005 31.2895L39.4105 42.6995C39.6265 42.9156 39.883 43.0869 40.1653 43.2038C40.4475 43.3207 40.75 43.3809 41.0555 43.3809C41.361 43.3809 41.6635 43.3207 41.9458 43.2038C42.228 43.0869 42.4845 42.9156 42.7005 42.6995C42.9165 42.4835 43.0879 42.2271 43.2048 41.9448C43.3217 41.6626 43.3819 41.36 43.3819 41.0545C43.3819 40.749 43.3217 40.4465 43.2048 40.1643C43.0879 39.882 42.9165 39.6256 42.7005 39.4095L31.2905 27.9995L42.7005 16.5895C43.5872 15.7029 43.5872 14.2095 42.7005 13.3229Z" fill="black"/>
</svg>
