<svg width="49" height="49" viewBox="0 0 49 49" fill="none" xmlns="http://www.w3.org/2000/svg">
<path d="M13.9771 6.05496C13.658 6.37336 13.4049 6.75155 13.2322 7.1679C13.0595 7.58424 12.9706 8.03056 12.9706 8.4813C12.9706 8.93204 13.0595 9.37836 13.2322 9.7947C13.4049 10.211 13.658 10.5892 13.9771 10.9076L27.3305 24.2611L13.9771 37.6146C13.3336 38.2581 12.972 39.1308 12.972 40.0409C12.972 40.951 13.3336 41.8237 13.9771 42.4672C14.6206 43.1107 15.4933 43.4723 16.4034 43.4723C17.3135 43.4723 18.1862 43.1107 18.8297 42.4672L34.6267 26.6702C34.9458 26.3518 35.1989 25.9736 35.3716 25.5573C35.5443 25.1409 35.6332 24.6946 35.6332 24.2439C35.6332 23.7931 35.5443 23.3468 35.3716 22.9305C35.1989 22.5141 34.9458 22.136 34.6267 21.8176L18.8297 6.02054C17.5219 4.71273 15.3193 4.71273 13.9771 6.05496Z" fill="#E97800"/>
</svg>
