<svg width="484" height="401" viewBox="0 0 484 401" fill="none" xmlns="http://www.w3.org/2000/svg">
<path d="M7.92116 292.126H83.9056V304.057H55.057V306.697C55.057 309.761 54.6006 312.662 53.6879 315.4L86.546 326.744L79.016 337.501L46.0601 326.255C38.8887 332.253 27.4796 336.328 11.8328 338.479L6.06311 327.233C12.3218 326.777 17.57 325.962 21.8076 324.788C26.1105 323.615 29.5658 322.148 32.1736 320.388C34.8466 318.628 36.7372 316.607 37.8456 314.325C39.0191 311.978 39.6058 309.402 39.6058 306.599V304.057H7.92116V292.126ZM5.08519 346.009H86.7416V357.94H53.5901V374.956H38.2367V357.94H5.08519V346.009ZM172.938 324.788H102.822V291.148H172.938V324.788ZM130.203 355.984V342.782H97.0518V330.852H178.708V342.782H145.557V355.984H130.203ZM117.197 348.943V361.949H174.894V373.88H101.844V348.943H117.197ZM118.175 303.079V312.858H157.585V303.079H118.175ZM247.596 358.038V369.871H186.574V358.038H247.596ZM268.719 371.924H253.366V290.17H268.719V371.924ZM216.694 334.959C218.519 334.959 220.214 334.535 221.779 333.688C223.409 332.84 224.81 331.667 225.984 330.167C227.157 328.668 228.07 326.907 228.722 324.886C229.374 322.8 229.7 320.551 229.7 318.139C229.7 315.661 229.374 313.379 228.722 311.293C228.07 309.207 227.157 307.414 225.984 305.915C224.81 304.415 223.409 303.274 221.779 302.492C220.214 301.644 218.519 301.221 216.694 301.221C214.738 301.221 212.945 301.644 211.315 302.492C209.75 303.339 208.381 304.513 207.208 306.012C206.099 307.512 205.219 309.305 204.567 311.391C203.981 313.477 203.687 315.726 203.687 318.139C203.687 320.616 204.013 322.898 204.665 324.984C205.317 327.005 206.197 328.765 207.306 330.265C208.479 331.764 209.848 332.938 211.413 333.785C213.043 334.568 214.803 334.959 216.694 334.959ZM188.334 318.139C188.334 313.51 189.084 309.402 190.583 305.817C192.083 302.231 194.104 299.232 196.646 296.82C199.254 294.343 202.253 292.484 205.643 291.246C209.098 289.942 212.782 289.29 216.694 289.29C220.54 289.29 224.191 289.942 227.646 291.246C231.102 292.484 234.101 294.343 236.643 296.82C239.251 299.232 241.305 302.231 242.804 305.817C244.304 309.402 245.053 313.51 245.053 318.139C245.053 322.702 244.304 326.777 242.804 330.363C241.305 333.883 239.251 336.882 236.643 339.359C234.101 341.772 231.102 343.63 227.646 344.934C224.191 346.172 220.54 346.792 216.694 346.792C212.782 346.792 209.098 346.172 205.643 344.934C202.253 343.63 199.254 341.772 196.646 339.359C194.104 336.882 192.083 333.883 190.583 330.363C189.084 326.777 188.334 322.702 188.334 318.139ZM365.892 349.334V345.129H309.857V334.959H381.245V359.505H325.21V363.71H382.223V373.88H309.857V349.334H365.892ZM321.103 303.079V317.454H357.481V329.385H305.749V291.148H356.503V303.079H321.103ZM381.245 315.498V330.558H365.892V290.17H381.245V303.568H389.753V315.498H381.245ZM476.145 290.17V348.552H460.792V290.17H476.145ZM417.177 346.009V362.047H477.123V373.88H401.823V346.009H417.177ZM394.782 315.205C394.782 311.293 395.467 307.805 396.836 304.741C398.205 301.612 400.096 298.971 402.508 296.82C404.985 294.668 407.919 293.039 411.309 291.93C414.764 290.757 418.546 290.17 422.653 290.17C426.76 290.17 430.509 290.757 433.899 291.93C437.354 293.039 440.288 294.668 442.7 296.82C445.178 298.971 447.101 301.612 448.47 304.741C449.839 307.805 450.524 311.293 450.524 315.205C450.524 319.051 449.839 322.507 448.47 325.571C447.101 328.635 445.178 331.243 442.7 333.394C440.288 335.546 437.354 337.208 433.899 338.382C430.509 339.555 426.76 340.142 422.653 340.142C418.546 340.142 414.764 339.555 411.309 338.382C407.919 337.208 404.985 335.546 402.508 333.394C400.096 331.243 398.205 328.635 396.836 325.571C395.467 322.507 394.782 319.051 394.782 315.205ZM422.653 328.211C424.283 328.211 425.848 327.918 427.347 327.331C428.912 326.744 430.248 325.897 431.356 324.788C432.53 323.615 433.443 322.246 434.095 320.681C434.812 319.051 435.17 317.226 435.17 315.205C435.17 313.119 434.812 311.261 434.095 309.631C433.443 308.001 432.53 306.632 431.356 305.523C430.248 304.415 428.912 303.568 427.347 302.981C425.848 302.394 424.283 302.101 422.653 302.101C420.958 302.101 419.361 302.394 417.861 302.981C416.362 303.568 415.025 304.415 413.852 305.523C412.743 306.632 411.831 308.001 411.114 309.631C410.462 311.261 410.136 313.119 410.136 315.205C410.136 317.226 410.462 319.051 411.114 320.681C411.831 322.246 412.743 323.615 413.852 324.788C415.025 325.897 416.362 326.744 417.861 327.331C419.361 327.918 420.958 328.211 422.653 328.211Z" fill="white"/>
<path d="M233.766 120.881C233.328 121.134 232.99 121.538 232.835 122.023C232.679 122.508 232.718 123.032 232.944 123.483C233.17 123.933 233.567 124.278 234.049 124.443C234.531 124.608 235.057 124.579 235.521 124.379C242.581 121.298 249.389 117.682 256.03 113.788C278.309 100.422 299.75 84.1277 314.371 61.076C314.211 61.3423 313.994 61.6285 313.766 61.8644C316.692 58.8809 319.975 56.1472 323.325 54.2515C336.834 44.0656 337.089 69.3862 335.417 85.0302C335.447 84.7329 335.514 84.3737 335.655 83.9809C327.403 103.19 307.571 118.31 286.89 126.667C281.829 128.913 282.429 135.827 287.705 137.227C299.057 139.629 309.357 147.589 305.909 158.188C305.12 160.954 306.97 164.165 310.079 164.646C322.833 166.3 333.284 175.835 326.799 187.857C325.19 191.824 328.62 195.526 332.626 194.381C337.751 192.71 341.988 193.67 343.616 198.295C345.343 202.96 344.847 209.321 343.827 215.251C343.875 215.003 343.968 214.716 344.128 214.426C333.079 234.031 315.926 251.297 295.283 261.124C288.58 264.262 281.482 266.518 274.154 267.655C273.646 267.734 273.186 268.005 272.875 268.417C272.564 268.828 272.428 269.345 272.497 269.854C272.566 270.363 272.834 270.825 273.244 271.139C273.653 271.453 274.169 271.592 274.68 271.533C282.441 270.63 290.031 268.524 297.218 265.466C319.428 255.77 337.675 238.658 350.255 217.785C350.484 217.369 350.623 216.943 350.698 216.554C351.906 210.059 353.06 203.225 350.665 195.731C349.484 192.06 346.319 188.08 342.068 186.678C337.889 185.223 333.803 185.704 330.199 186.79C333.009 186.07 335.142 188.346 334.095 191.166C337.551 184.451 338.559 173.86 332.522 166.921C326.839 160.171 319.142 157.306 311.499 155.867C313.783 156.234 315.078 158.518 314.521 160.497C316.867 153.309 314.873 143.633 309.125 138.158C303.597 132.547 296.789 129.647 289.845 127.923C293.755 129.068 294.174 133.78 290.428 135.563C313.014 126.483 334.499 111.803 345.33 87.4377C345.508 86.9409 345.598 86.4728 345.64 86.0655C346.513 76.8278 347.21 67.8165 345.25 57.8217C344.102 53.0754 342.493 46.861 335.79 43.2295C328.775 39.9737 322.549 42.8183 318.207 45.1579C313.564 47.8066 309.775 51.0901 306.319 54.6923C306.019 55.0018 305.74 55.3695 305.528 55.7231C292.78 76.5858 273.098 93.6054 252.616 108.54C246.511 112.916 240.229 117.129 233.766 120.881Z" fill="white"/>
<path d="M235.288 124.4C235.618 124.029 235.821 123.551 235.832 123.048C235.842 122.545 235.662 122.061 235.326 121.698C234.99 121.335 234.522 121.119 234.019 121.091C233.517 121.063 233.025 121.229 232.629 121.529C229.033 124.268 225.485 127.064 221.978 129.919C215.787 135.099 210.077 139.42 203.854 146.291C203.92 146.194 204.029 146.036 204.27 145.801C204.578 145.575 204.637 145.247 206.151 144.783C206.835 144.607 207.729 144.617 208.471 144.856C209.259 145.118 209.584 145.368 209.945 145.65C210.593 146.192 210.837 146.679 210.918 146.811C211.092 147.133 211.113 147.232 211.123 147.233C211.13 147.236 211.123 147.185 211.111 147.099C211.086 146.921 211.062 146.717 211.03 146.427C211.004 146.18 210.979 145.911 210.951 145.601C210.853 144.456 210.761 143.157 210.659 141.893C210.451 139.313 210.191 136.715 209.8 134.073C209.012 128.803 207.776 123.436 205.417 118.2C202.305 110.91 195.58 103.302 186.6 101.377C186.895 101.449 187.15 101.537 187.451 101.677C183.119 99.7428 177.991 98.0355 171.883 99.7818C165.444 101.612 162.129 108.248 161.385 112.864C159.76 122.726 161.754 130.934 163.76 139.227C168.081 155.479 174.578 170.607 181.589 185.6L181.503 185.394C189.522 206.358 197.481 228.916 196.502 250.967C196.076 255.153 194.979 259.319 192.259 261.855C191.882 262.2 191.646 262.677 191.61 263.189C191.573 263.701 191.738 264.206 192.07 264.593C192.402 264.981 192.876 265.222 193.388 265.264C193.899 265.307 194.407 265.146 194.805 264.827C198.994 261.327 200.422 256.241 201.214 251.59C203.669 227.349 196.551 204.597 189.117 182.466L189.031 182.26C182.693 167.275 176.801 152.186 173.117 136.907C171.358 129.277 170.022 121.323 171.279 114.873C171.966 111.681 173.228 110.03 174.908 109.577C176.731 108.976 180.066 109.597 183.038 111.05C183.427 111.232 183.775 111.352 184.165 111.448C189.447 112.679 193.361 116.799 195.914 122.509C197.726 126.514 198.93 131.056 199.838 135.757C200.294 138.119 200.666 140.493 201.03 142.984C201.212 144.213 201.39 145.488 201.608 146.81C201.727 147.519 201.838 148.187 202.052 149.073C202.113 149.322 202.181 149.572 202.267 149.841C202.367 150.151 202.517 150.607 202.813 151.15C202.953 151.398 203.329 152.083 204.083 152.705C204.502 153.034 204.871 153.313 205.738 153.601C206.554 153.864 207.525 153.876 208.289 153.681C209.989 153.163 210.131 152.755 210.549 152.431C210.898 152.094 211.119 151.802 211.303 151.537C215.192 146.429 221.212 140.184 226.292 134.456C229.299 131.117 232.299 127.762 235.288 124.4Z" fill="white"/>
<path d="M360.485 6.13032C360.943 4.63853 360.75 3.16435 359.746 2.01809C358.754 0.872645 357.032 0.14897 355.162 0.0202779C353.293 -0.108412 351.488 0.372452 350.348 1.3711C349.197 2.36893 348.804 3.80277 349.052 5.34319C349.119 5.7645 349.186 6.18582 349.253 6.60714C350.454 14.1908 351.654 21.7746 352.855 29.3583C352.922 29.7796 352.989 30.2009 353.056 30.6222C353.179 30.214 353.303 29.8058 353.427 29.3976C355.656 22.0501 357.885 14.7025 360.114 7.35492C360.238 6.94672 360.362 6.53852 360.485 6.13032Z" fill="white"/>
<path d="M388.742 25.4041C390.133 24.6977 391.06 23.5354 391.188 22.0169C391.324 20.5075 390.649 18.7658 389.444 17.3311C388.239 15.8965 386.64 14.9313 385.13 14.8042C383.612 14.668 382.307 15.3806 381.371 16.6291C381.114 16.9696 380.857 17.3102 380.6 17.6507C375.976 23.7801 371.352 29.9096 366.727 36.039C366.47 36.3796 366.213 36.7201 365.956 37.0606C366.336 36.8663 366.716 36.6721 367.096 36.4778C373.931 32.9808 380.767 29.4839 387.603 25.9869C387.982 25.7926 388.362 25.5984 388.742 25.4041Z" fill="white"/>
<path d="M395.342 57.7098C396.853 58.0997 398.317 57.8408 399.417 56.7861C400.516 55.7432 401.162 53.9904 401.206 52.1173C401.251 50.2442 400.689 48.4629 399.64 47.369C398.592 46.2633 397.141 45.9352 395.614 46.253C395.196 46.3386 394.778 46.4243 394.36 46.5099C386.838 48.0509 379.316 49.5919 371.794 51.133C371.376 51.2186 370.958 51.3042 370.541 51.3898C370.954 51.4951 371.367 51.6005 371.781 51.7058C379.221 53.6018 386.662 55.4978 394.102 57.3938C394.515 57.4992 394.929 57.6045 395.342 57.7098Z" fill="white"/>
</svg>
