<svg width="118" height="201" viewBox="0 0 118 201" fill="none" xmlns="http://www.w3.org/2000/svg">
<mask id="path-1-outside-1_245_684" maskUnits="userSpaceOnUse" x="-0.171143" y="-0.571289" width="118" height="202" fill="black">
<rect fill="white" x="-0.171143" y="-0.571289" width="118" height="202"/>
<path d="M58.8289 64.6287H51.8289V73.8287H41.6289V81.8287H21.4289V73.8287H11.6289V42.6287H23.6289V31.6287H35.2289V21.4287H46.6289V11.6287H94.6289V21.4287H105.429V179.829H96.8289V189.029H67.6289V179.829H58.8289V64.6287Z"/>
</mask>
<path d="M58.8289 64.6287H51.8289V73.8287H41.6289V81.8287H21.4289V73.8287H11.6289V42.6287H23.6289V31.6287H35.2289V21.4287H46.6289V11.6287H94.6289V21.4287H105.429V179.829H96.8289V189.029H67.6289V179.829H58.8289V64.6287Z" fill="#FFFF58"/>
<path d="M58.8289 64.6287H70.4577V52.9998H58.8289V64.6287ZM51.8289 64.6287V52.9998H40.2V64.6287H51.8289ZM51.8289 73.8287V85.4576H63.4577V73.8287H51.8289ZM41.6289 73.8287V62.1998H30V73.8287H41.6289ZM41.6289 81.8287V93.4576H53.2577V81.8287H41.6289ZM21.4289 81.8287H9.79999V93.4576H21.4289V81.8287ZM21.4289 73.8287H33.0577V62.1998H21.4289V73.8287ZM11.6289 73.8287H-8.58307e-06V85.4576H11.6289V73.8287ZM11.6289 42.6287V30.9998H-8.58307e-06V42.6287H11.6289ZM23.6289 42.6287V54.2576H35.2577V42.6287H23.6289ZM23.6289 31.6287V19.9998H12V31.6287H23.6289ZM35.2289 31.6287V43.2576H46.8577V31.6287H35.2289ZM35.2289 21.4287V9.79984H23.6V21.4287H35.2289ZM46.6289 21.4287V33.0576H58.2577V21.4287H46.6289ZM46.6289 11.6287V-0.000160217H35V11.6287H46.6289ZM94.6289 11.6287H106.258V-0.000160217H94.6289V11.6287ZM94.6289 21.4287H83V33.0576H94.6289V21.4287ZM105.429 21.4287H117.058V9.79984H105.429V21.4287ZM105.429 179.829V191.458H117.058V179.829H105.429ZM96.8289 179.829V168.2H85.2V179.829H96.8289ZM96.8289 189.029V200.658H108.458V189.029H96.8289ZM67.6289 189.029H56V200.658H67.6289V189.029ZM67.6289 179.829H79.2577V168.2H67.6289V179.829ZM58.8289 179.829H47.2V191.458H58.8289V179.829ZM58.8289 64.6287V52.9998H51.8289V64.6287V76.2576H58.8289V64.6287ZM51.8289 64.6287H40.2V73.8287H51.8289H63.4577V64.6287H51.8289ZM51.8289 73.8287V62.1998H41.6289V73.8287V85.4576H51.8289V73.8287ZM41.6289 73.8287H30V81.8287H41.6289H53.2577V73.8287H41.6289ZM41.6289 81.8287V70.1998H21.4289V81.8287V93.4576H41.6289V81.8287ZM21.4289 81.8287H33.0577V73.8287H21.4289H9.79999V81.8287H21.4289ZM21.4289 73.8287V62.1998H11.6289V73.8287V85.4576H21.4289V73.8287ZM11.6289 73.8287H23.2577V42.6287H11.6289H-8.58307e-06V73.8287H11.6289ZM11.6289 42.6287V54.2576H23.6289V42.6287V30.9998H11.6289V42.6287ZM23.6289 42.6287H35.2577V31.6287H23.6289H12V42.6287H23.6289ZM23.6289 31.6287V43.2576H35.2289V31.6287V19.9998H23.6289V31.6287ZM35.2289 31.6287H46.8577V21.4287H35.2289H23.6V31.6287H35.2289ZM35.2289 21.4287V33.0576H46.6289V21.4287V9.79984H35.2289V21.4287ZM46.6289 21.4287H58.2577V11.6287H46.6289H35V21.4287H46.6289ZM46.6289 11.6287V23.2576H94.6289V11.6287V-0.000160217H46.6289V11.6287ZM94.6289 11.6287H83V21.4287H94.6289H106.258V11.6287H94.6289ZM94.6289 21.4287V33.0576H105.429V21.4287V9.79984H94.6289V21.4287ZM105.429 21.4287H93.8V179.829H105.429H117.058V21.4287H105.429ZM105.429 179.829V168.2H96.8289V179.829V191.458H105.429V179.829ZM96.8289 179.829H85.2V189.029H96.8289H108.458V179.829H96.8289ZM96.8289 189.029V177.4H67.6289V189.029V200.658H96.8289V189.029ZM67.6289 189.029H79.2577V179.829H67.6289H56V189.029H67.6289ZM67.6289 179.829V168.2H58.8289V179.829V191.458H67.6289V179.829ZM58.8289 179.829H70.4577V64.6287H58.8289H47.2V179.829H58.8289Z" fill="#D5A700" mask="url(#path-1-outside-1_245_684)"/>
</svg>
