<svg width="90" height="90" viewBox="0 0 90 90" fill="none" xmlns="http://www.w3.org/2000/svg">
<path d="M22.3523 74.507L27.9404 60.5369C28.4992 59.1089 29.3995 57.9751 30.6412 57.1357C31.883 56.2962 33.28 55.8778 34.8323 55.8802H40.9791V40.8857C31.4795 40.5753 23.5159 39.1782 17.0884 36.6947C10.6609 34.2111 7.44845 31.2929 7.45093 27.9401C7.45093 24.3389 11.0831 21.2655 18.3476 18.7199C25.612 16.1742 34.3976 14.9014 44.7044 14.9014C55.0733 14.9014 63.8751 16.1742 71.1097 18.7199C78.3444 21.2655 81.9604 24.3389 81.958 27.9401C81.958 31.2929 78.7442 34.2111 72.3168 36.6947C65.8893 39.1782 57.927 40.5753 48.4298 40.8857V55.8802H54.5766C56.0668 55.8802 57.4489 56.3 58.7229 57.1394C59.997 57.9789 60.9122 59.1114 61.4685 60.5369L67.0566 74.507H59.6059L55.1354 63.331H34.2735L29.803 74.507H22.3523ZM44.7044 33.5281C50.7271 33.5281 56.4083 33.0004 61.7479 31.9449C67.0876 30.8893 70.9992 29.5544 73.4828 27.9401C70.9992 26.3258 67.0876 24.9909 61.7479 23.9353C56.4083 22.8798 50.7271 22.3521 44.7044 22.3521C38.6818 22.3521 33.0006 22.8798 27.661 23.9353C22.3213 24.9909 18.4097 26.3258 15.9261 27.9401C18.4097 29.5544 22.3213 30.8893 27.661 31.9449C33.0006 33.0004 38.6818 33.5281 44.7044 33.5281Z" fill="white"/>
</svg>
