<svg width="39" height="39" viewBox="0 0 39 39" fill="none" xmlns="http://www.w3.org/2000/svg">
<path d="M21.1246 9.75C21.1246 9.31902 20.9534 8.9057 20.6487 8.60095C20.3439 8.29621 19.9306 8.125 19.4996 8.125C19.0687 8.125 18.6553 8.29621 18.3506 8.60095C18.0458 8.9057 17.8746 9.31902 17.8746 9.75V17.875H9.74963C9.31866 17.875 8.90533 18.0462 8.60059 18.351C8.29584 18.6557 8.12463 19.069 8.12463 19.5C8.12463 19.931 8.29584 20.3443 8.60059 20.649C8.90533 20.9538 9.31866 21.125 9.74963 21.125H17.8746V29.25C17.8746 29.681 18.0458 30.0943 18.3506 30.399C18.6553 30.7038 19.0687 30.875 19.4996 30.875C19.9306 30.875 20.3439 30.7038 20.6487 30.399C20.9534 30.0943 21.1246 29.681 21.1246 29.25V21.125H29.2496C29.6806 21.125 30.0939 20.9538 30.3987 20.649C30.7034 20.3443 30.8746 19.931 30.8746 19.5C30.8746 19.069 30.7034 18.6557 30.3987 18.351C30.0939 18.0462 29.6806 17.875 29.2496 17.875H21.1246V9.75Z" fill="white"/>
</svg>
