<svg width="137" height="118" viewBox="0 0 137 118" fill="none" xmlns="http://www.w3.org/2000/svg">
<rect x="46.7141" y="13.1689" width="8.45455" height="46.5" fill="currentColor"/>
<rect x="80.532" y="13.1689" width="8.45455" height="46.5" fill="currentColor"/>
<path d="M86.8733 11.0553H80.5324V8.94163C80.5324 7.82049 80.087 6.74526 79.2943 5.95249C78.5015 5.15973 77.4263 4.71436 76.3051 4.71436H59.396C58.2749 4.71436 57.1997 5.15973 56.4069 5.95249C55.6141 6.74526 55.1688 7.82049 55.1688 8.94163V11.0553H48.8279C47.7067 11.0553 46.6315 11.5006 45.8387 12.2934C45.046 13.0862 44.6006 14.1614 44.6006 15.2825V59.6689C44.6006 60.79 45.046 61.8653 45.8387 62.658C46.6315 63.4508 47.7067 63.8962 48.8279 63.8962H86.8733C87.9945 63.8962 89.0697 63.4508 89.8624 62.658C90.6552 61.8653 91.1006 60.79 91.1006 59.6689V15.2825C91.1006 14.1614 90.6552 13.0862 89.8624 12.2934C89.0697 11.5006 87.9945 11.0553 86.8733 11.0553ZM59.396 8.94163H76.3051V17.3962H59.396V8.94163ZM86.8733 59.6689H48.8279V15.2825H55.1688V21.6234H80.5324V15.2825H86.8733V59.6689Z" fill="currentColor"/>
<path d="M80.532 63.896H55.1687V53.3276H65.7371V49.1001H55.1687V42.7593H72.0779V38.5327H55.1687V32.1909H80.532V63.896ZM80.532 27.9644H55.1687V21.6235H80.532V27.9644Z" fill="currentColor"/>
<path d="M29.1825 86.7729H19.1923V83.4614H29.1825V86.7729ZM29.1825 94.8391H19.1923V91.509H29.1825V94.8391ZM31.828 103.127H27.7209V78.5958H31.828V103.127ZM32.679 111.378H9.8866V108.011H32.679V111.378ZM14.0122 109.639H9.8866V100.611H14.0122V109.639ZM13.1057 80.5938C14.7337 80.5938 16.2076 80.9638 17.5273 81.7038C18.8593 82.4438 19.9138 83.4675 20.6908 84.7749C21.4802 86.0699 21.8748 87.5376 21.8748 89.178C21.8748 90.7937 21.4802 92.249 20.6908 93.5441C19.9138 94.8391 18.8593 95.8566 17.5273 96.5966C16.2076 97.3366 14.7337 97.7066 13.1057 97.7066C11.4406 97.7066 9.93594 97.3366 8.59158 96.5966C7.24722 95.8566 6.1927 94.8391 5.42802 93.5441C4.66334 92.249 4.281 90.7937 4.281 89.178C4.281 87.5376 4.66334 86.0638 5.42802 84.7564C6.1927 83.449 7.24722 82.4315 8.59158 81.7038C9.93594 80.9638 11.4406 80.5938 13.1057 80.5938ZM13.1057 84.2569C12.156 84.2445 11.305 84.4481 10.5526 84.8674C9.8126 85.2744 9.23293 85.8479 8.81358 86.5879C8.39424 87.3279 8.18457 88.1913 8.18457 89.178C8.18457 90.1523 8.39424 91.0095 8.81358 91.7495C9.23293 92.4772 9.8126 93.0446 10.5526 93.4516C11.305 93.8462 12.156 94.0497 13.1057 94.0621C14.006 94.0497 14.8262 93.8462 15.5662 93.4516C16.3062 93.0446 16.8859 92.471 17.3052 91.731C17.7246 90.991 17.9343 90.14 17.9343 89.178C17.9343 88.1913 17.7246 87.3279 17.3052 86.5879C16.8859 85.8479 16.3062 85.2744 15.5662 84.8674C14.8262 84.4481 14.006 84.2445 13.1057 84.2569ZM44.3158 101.814H59.0236V98.6132H63.1306V111.582H40.2272V98.6132H44.3158V101.814ZM59.0236 108.344V104.959H44.3158V108.344H59.0236ZM67.0342 96.7076H36.5826V93.3776H67.0342V96.7076ZM53.2514 80.1868C53.2514 82.0738 52.6718 83.8252 51.5124 85.4409C50.3531 87.0443 48.7435 88.3825 46.6838 89.4555C44.6241 90.5285 42.2807 91.2439 39.6537 91.6015L38.1366 88.364C40.406 88.0803 42.4226 87.5314 44.1863 86.7174C45.95 85.8911 47.3067 84.9106 48.2563 83.7759C49.2184 82.6289 49.6994 81.4325 49.6994 80.1868V78.9103H53.2514V80.1868ZM53.936 80.1868C53.936 81.4078 54.417 82.5919 55.379 83.7389C56.341 84.8859 57.6977 85.8787 59.4491 86.7174C61.2128 87.5561 63.2108 88.105 65.4432 88.364L63.9816 91.6015C61.3423 91.2439 58.9866 90.5223 56.9145 89.437C54.8548 88.3516 53.2514 87.0134 52.1044 85.4224C50.9574 83.819 50.3839 82.0738 50.3839 80.1868V78.9103H53.936V80.1868ZM97.2453 111.97H93.0827V78.5588H97.2453V111.97ZM87.2736 82.1108C87.2736 85.6012 86.7679 88.8018 85.7566 91.7125C84.7576 94.6109 83.111 97.2811 80.817 99.7232C78.5229 102.153 75.4827 104.268 71.6963 106.069L69.5133 102.776C72.7323 101.246 75.347 99.5073 77.3574 97.5586C79.3678 95.6099 80.8416 93.4207 81.779 90.991C82.7163 88.5613 83.185 85.8356 83.185 82.8139V82.1108H87.2736ZM85.0351 85.3669H71.2153V82.1108H85.0351V85.3669ZM132.599 99.9637H102.037V96.6521H132.599V99.9637ZM128.825 88.0125H109.992V91.953H105.903V85.0154H124.681V82.5178H105.811V79.2803H128.825V88.0125ZM129.473 93.8771H105.903V90.6765H129.473V93.8771ZM119.335 98.4282H115.265V92.212H119.335V98.4282ZM129.01 111.785H124.848V105.347H105.441V102.073H129.01V111.785Z" fill="currentColor"/>
</svg>
