<svg width="137" height="121" viewBox="0 0 137 121" fill="none" xmlns="http://www.w3.org/2000/svg">
<path d="M61.857 64.2855V44.0166H75.3998V64.2855H92.3284V37.2603H102.486L68.6284 6.85693L34.7712 37.2603H44.9284V64.2855H61.857Z" fill="currentColor"/>
<path d="M26.474 89.3442H16.4838V86.0327H26.474V89.3442ZM26.474 97.4104H16.4838V94.0803H26.474V97.4104ZM29.1196 105.699H25.0125V81.1671H29.1196V105.699ZM29.9706 113.95H7.17814V110.583H29.9706V113.95ZM11.3037 112.211H7.17814V103.182H11.3037V112.211ZM10.3972 83.1651C12.0252 83.1651 13.4991 83.5351 14.8188 84.2751C16.1508 85.0151 17.2053 86.0388 17.9823 87.3462C18.7717 88.6412 19.1664 90.1089 19.1664 91.7493C19.1664 93.365 18.7717 94.8203 17.9823 96.1154C17.2053 97.4104 16.1508 98.4279 14.8188 99.1679C13.4991 99.9079 12.0252 100.278 10.3972 100.278C8.73217 100.278 7.22747 99.9079 5.88311 99.1679C4.53875 98.4279 3.48423 97.4104 2.71955 96.1154C1.95487 94.8203 1.57253 93.365 1.57253 91.7493C1.57253 90.1089 1.95487 88.635 2.71955 87.3277C3.48423 86.0203 4.53875 85.0028 5.88311 84.2751C7.22747 83.5351 8.73217 83.1651 10.3972 83.1651ZM10.3972 86.8282C9.44752 86.8158 8.5965 87.0193 7.84415 87.4387C7.10414 87.8457 6.52446 88.4192 6.10512 89.1592C5.68578 89.8992 5.47611 90.7626 5.47611 91.7493C5.47611 92.7236 5.68578 93.5808 6.10512 94.3208C6.52446 95.0485 7.10414 95.6158 7.84415 96.0228C8.5965 96.4175 9.44752 96.621 10.3972 96.6334C11.2976 96.621 12.1177 96.4175 12.8577 96.0228C13.5978 95.6158 14.1774 95.0423 14.5968 94.3023C15.0161 93.5623 15.2258 92.7113 15.2258 91.7493C15.2258 90.7626 15.0161 89.8992 14.5968 89.1592C14.1774 88.4192 13.5978 87.8457 12.8577 87.4387C12.1177 87.0193 11.2976 86.8158 10.3972 86.8282ZM41.6073 104.385H56.3151V101.184H60.4222V114.153H37.5187V101.184H41.6073V104.385ZM56.3151 110.916V107.53H41.6073V110.916H56.3151ZM64.3257 99.2789H33.8742V95.9488H64.3257V99.2789ZM50.543 82.7581C50.543 84.6451 49.9633 86.3965 48.8039 88.0122C47.6446 89.6156 46.0351 90.9538 43.9753 92.0268C41.9156 93.0998 39.5723 93.8151 36.9452 94.1728L35.4282 90.9353C37.6976 90.6516 39.7141 90.1027 41.4778 89.2887C43.2415 88.4624 44.5982 87.4819 45.5479 86.3472C46.5099 85.2001 46.9909 84.0038 46.9909 82.7581V81.4816H50.543V82.7581ZM51.2275 82.7581C51.2275 83.9791 51.7085 85.1631 52.6705 86.3102C53.6325 87.4572 54.9892 88.45 56.7406 89.2887C58.5043 90.1274 60.5023 90.6762 62.7347 90.9353L61.2732 94.1728C58.6338 93.8151 56.2781 93.0936 54.206 92.0083C52.1463 90.9229 50.543 89.5847 49.396 87.9937C48.2489 86.3903 47.6754 84.6451 47.6754 82.7581V81.4816H51.2275V82.7581ZM92.7978 114.542H88.7277V81.1301H92.7978V114.542ZM97.9594 97.8544H91.8728V94.4688H97.9594V97.8544ZM86.1377 89.5662H66.4348V86.2547H86.1377V89.5662ZM76.388 91.7308C78.0037 91.7308 79.4467 92.0699 80.7171 92.7483C81.9998 93.4143 83.0049 94.3455 83.7326 95.5418C84.4603 96.7382 84.8241 98.0949 84.8241 99.6119C84.8241 101.117 84.4603 102.473 83.7326 103.682C83.0049 104.878 81.9998 105.81 80.7171 106.476C79.4467 107.142 78.0037 107.475 76.388 107.475C74.7846 107.475 73.3416 107.142 72.0589 106.476C70.7762 105.81 69.771 104.878 69.0433 103.682C68.328 102.473 67.9703 101.117 67.9703 99.6119C67.9703 98.0949 68.328 96.7382 69.0433 95.5418C69.771 94.3455 70.7762 93.4143 72.0589 92.7483C73.3416 92.0699 74.7846 91.7308 76.388 91.7308ZM76.388 95.1163C75.537 95.1163 74.7661 95.3013 74.0754 95.6713C73.3971 96.0413 72.8606 96.5655 72.4659 97.2439C72.0836 97.9222 71.8924 98.7116 71.8924 99.6119C71.8924 100.5 72.0836 101.283 72.4659 101.961C72.8606 102.64 73.3971 103.164 74.0754 103.534C74.7661 103.892 75.537 104.071 76.388 104.071C77.2637 104.071 78.0407 103.892 78.719 103.534C79.3974 103.164 79.9277 102.64 80.3101 101.961C80.6924 101.283 80.8836 100.5 80.8836 99.6119C80.8836 98.7116 80.6924 97.9222 80.3101 97.2439C79.9277 96.5655 79.3974 96.0413 78.719 95.6713C78.0407 95.3013 77.2637 95.1163 76.388 95.1163ZM78.423 87.5867H74.3344V81.6111H78.423V87.5867ZM127.282 114.542H123.12V81.1301H127.282V114.542ZM117.311 84.6821C117.311 88.1725 116.805 91.3731 115.794 94.2838C114.795 97.1822 113.148 99.8524 110.854 102.294C108.56 104.724 105.52 106.839 101.733 108.64L99.5504 105.347C102.769 103.818 105.384 102.079 107.395 100.13C109.405 98.1812 110.879 95.992 111.816 93.5623C112.754 91.1326 113.222 88.4069 113.222 85.3851V84.6821H117.311ZM115.072 87.9382H101.252V84.6821H115.072V87.9382Z" fill="currentColor"/>
</svg>
