<svg width="132" height="121" viewBox="0 0 132 121" fill="none" xmlns="http://www.w3.org/2000/svg">
<path d="M69.0506 5.14258C69.9326 5.14258 70.7215 5.69157 71.0185 6.51357L73.1365 12.3845C73.8944 12.5725 74.5484 12.7645 75.0984 12.9605C75.6984 13.1745 76.4783 13.5045 77.4383 13.9505L82.3701 11.3405C82.7725 11.1263 83.2336 11.0487 83.6838 11.1196C84.1341 11.1905 84.549 11.406 84.8661 11.7335L89.2039 16.2185C89.7799 16.8155 89.9419 17.6885 89.6179 18.4505L87.305 23.8714C87.687 24.5754 87.995 25.1794 88.2289 25.6834C88.4809 26.2294 88.7929 26.9894 89.1649 27.9634L94.5557 30.2733C95.3657 30.6183 95.8667 31.4283 95.8127 32.2953L95.4167 38.5203C95.3896 38.9247 95.2444 39.3122 94.9991 39.6349C94.7538 39.9575 94.4192 40.201 94.0367 40.3352L88.9309 42.1502C88.7849 42.8542 88.6309 43.4602 88.4689 43.9682C88.2068 44.7555 87.9085 45.5303 87.575 46.2902L90.1399 51.9601C90.3223 52.3582 90.3719 52.8045 90.2811 53.2329C90.1903 53.6614 89.9641 54.0492 89.6359 54.3391L84.7581 58.6951C84.4374 58.9819 84.0365 59.1633 83.6094 59.2148C83.1823 59.2663 82.7497 59.1854 82.3701 58.9831L77.3423 56.3191C76.5565 56.7372 75.7449 57.105 74.9124 57.4201L72.7165 58.2421L70.7665 63.642C70.6206 64.0366 70.3596 64.3782 70.0173 64.6226C69.675 64.8671 69.2671 65.0031 68.8466 65.013L63.1468 65.142C62.715 65.152 62.2906 65.0287 61.9314 64.7887C61.5723 64.5487 61.2959 64.2038 61.1399 63.801L58.842 57.7201C58.0581 57.4516 57.2819 57.1615 56.514 56.8501C55.8862 56.5783 55.2679 56.2852 54.6601 55.9711L48.9603 58.4071C48.5849 58.5681 48.1707 58.6161 47.7684 58.5452C47.3661 58.4743 46.9932 58.2877 46.6954 58.0081L42.4775 54.0511C42.1623 53.7586 41.9476 53.3739 41.8641 52.952C41.7806 52.5302 41.8326 52.0927 42.0125 51.7021L44.4635 46.3622C44.1386 45.7291 43.8365 45.0847 43.5575 44.4302C43.2325 43.6287 42.9324 42.8173 42.6575 41.9972L37.2877 40.3622C36.8512 40.2303 36.4705 39.9579 36.2047 39.5874C35.9389 39.2169 35.8029 38.769 35.8178 38.3133L36.0277 32.5503C36.0433 32.1745 36.1611 31.81 36.3683 31.496C36.5754 31.182 36.8643 30.9305 37.2037 30.7683L42.8375 28.0624C43.0975 27.1064 43.3275 26.3584 43.5275 25.8184C43.8105 25.0931 44.1248 24.3805 44.4695 23.6824L42.0275 18.5225C41.8408 18.1309 41.7838 17.69 41.8647 17.2638C41.9456 16.8376 42.1603 16.4483 42.4775 16.1525L46.6894 12.1745C46.9842 11.8954 47.3537 11.7077 47.753 11.6342C48.1523 11.5607 48.5644 11.6046 48.9393 11.7605L54.6331 14.1125C55.2611 13.6945 55.8331 13.3505 56.349 13.0805C56.963 12.7565 57.787 12.4105 58.821 12.0425L60.8009 6.51957C60.9487 6.11634 61.2167 5.76815 61.5686 5.52194C61.9204 5.27572 62.3394 5.14332 62.7688 5.14258H69.0506ZM65.8887 26.1994C60.8879 26.1994 56.835 30.2043 56.835 35.1483C56.835 40.0922 60.8879 44.1002 65.8887 44.1002C70.8895 44.1002 74.9394 40.0922 74.9394 35.1483C74.9394 30.2043 70.8895 26.1994 65.8887 26.1994Z" fill="currentColor"/>
<path d="M27.621 107.253H23.4955V81.1301H27.621V107.253ZM32.1351 95.7638H26.104V92.3598H32.1351V95.7638ZM28.7866 113.95H5.60561V110.583H28.7866V113.95ZM9.74969 111.6H5.60561V105.514H9.74969V111.6ZM13.3388 102.054H9.23168V97.2809H13.3388V102.054ZM0.814016 100.574C4.69909 100.574 8.39916 100.5 11.9142 100.352C15.4293 100.192 18.7162 99.8771 21.7749 99.4084L22.0894 102.276C19.9187 102.671 17.6247 102.979 15.2073 103.201C12.8022 103.423 10.5637 103.565 8.49166 103.626C6.43196 103.688 4.02074 103.744 1.25802 103.793L0.814016 100.574ZM20.8684 87.0317H1.66503V84.0531H20.8684V87.0317ZM11.2482 88.1232C12.8762 88.1232 14.2946 88.3329 15.5033 88.7522C16.7243 89.1592 17.6678 89.7574 18.3339 90.5467C18.9999 91.3238 19.3329 92.2549 19.3329 93.3403C19.3329 94.3763 18.9999 95.2767 18.3339 96.0413C17.6678 96.806 16.7243 97.398 15.5033 97.8174C14.2946 98.2367 12.8762 98.4464 11.2482 98.4464C9.64485 98.4464 8.23266 98.2367 7.01164 97.8174C5.80295 97.398 4.85943 96.806 4.18108 96.0413C3.51507 95.2767 3.18206 94.3763 3.18206 93.3403C3.18206 92.2549 3.51507 91.3238 4.18108 90.5467C4.85943 89.7697 5.80295 89.1716 7.01164 88.7522C8.23266 88.3329 9.64485 88.1232 11.2482 88.1232ZM11.2482 90.9353C10.3972 90.9353 9.66335 91.0278 9.04667 91.2128C8.43 91.3854 7.95515 91.6568 7.62215 92.0268C7.28914 92.3844 7.12264 92.8223 7.12264 93.3403C7.12264 93.809 7.28914 94.216 7.62215 94.5613C7.95515 94.9067 8.43 95.178 9.04667 95.3753C9.66335 95.5603 10.3972 95.6528 11.2482 95.6528C12.1239 95.6528 12.8701 95.5603 13.4868 95.3753C14.1034 95.178 14.5721 94.9067 14.8928 94.5613C15.2258 94.216 15.3923 93.809 15.3923 93.3403C15.3923 92.8223 15.232 92.3844 14.9113 92.0268C14.5906 91.6568 14.1158 91.3854 13.4868 91.2128C12.8701 91.0278 12.1239 90.9353 11.2482 90.9353ZM13.3388 85.4036H9.23168V81.0376H13.3388V85.4036ZM58.4426 90.0842H50.0435V86.8282H58.4426V90.0842ZM58.1836 97.0219H49.803V93.6918H58.1836V97.0219ZM61.8652 100.703H57.7581V81.1671H61.8652V100.703ZM51.32 83.4981C51.32 86.4335 50.7218 89.0605 49.5255 91.3793C48.3414 93.698 46.5962 95.6713 44.2899 97.2994C41.9958 98.9151 39.1776 100.198 35.8352 101.147L34.2072 97.9099C37.0192 97.1329 39.3688 96.1277 41.2558 94.8943C43.1552 93.661 44.5735 92.2488 45.5109 90.6577C46.4482 89.0667 46.9169 87.3277 46.9169 85.4406V83.4981H51.32ZM49.766 86.8467H35.9462V83.4981H49.766V86.8467ZM50.7835 101.073C53.0405 101.073 55.0201 101.345 56.7221 101.887C58.4365 102.43 59.7562 103.201 60.6812 104.2C61.6185 105.187 62.0872 106.358 62.0872 107.715C62.0872 109.072 61.6185 110.256 60.6812 111.267C59.7562 112.278 58.4365 113.049 56.7221 113.58C55.0201 114.122 53.0405 114.394 50.7835 114.394C48.5264 114.394 46.5407 114.122 44.8264 113.58C43.1243 113.049 41.8046 112.278 40.8673 111.267C39.9299 110.256 39.4613 109.072 39.4613 107.715C39.4613 106.358 39.9299 105.187 40.8673 104.2C41.8046 103.201 43.1243 102.43 44.8264 101.887C46.5407 101.345 48.5264 101.073 50.7835 101.073ZM50.7835 104.311C49.3035 104.286 48.0146 104.41 46.9169 104.681C45.8316 104.94 44.999 105.329 44.4194 105.847C43.8397 106.365 43.5498 106.987 43.5498 107.715C43.5498 108.443 43.8397 109.059 44.4194 109.565C44.999 110.071 45.8254 110.459 46.8984 110.731C47.9838 110.99 49.2788 111.119 50.7835 111.119C52.2758 111.119 53.5585 110.99 54.6316 110.731C55.7046 110.459 56.5309 110.071 57.1106 109.565C57.6903 109.059 57.9801 108.443 57.9801 107.715C57.9801 106.987 57.6903 106.365 57.1106 105.847C56.5309 105.329 55.7046 104.94 54.6316 104.681C53.5585 104.41 52.2758 104.286 50.7835 104.311ZM92.2983 89.8067H83.8436V86.5137H92.2983V89.8067ZM94.6108 98.2429H90.5037V81.1301H94.6108V98.2429ZM94.6108 108.344H76.7025V112.877H72.6509V105.31H90.5222V102.923H72.5769V99.7044H94.6108V108.344ZM95.6653 114.153H72.6509V110.916H95.6653V114.153ZM77.9235 84.9041C77.9235 87.0132 77.5658 88.968 76.8505 90.7687C76.1475 92.5571 75.093 94.1173 73.6869 95.4493C72.2932 96.769 70.5912 97.768 68.5808 98.4464L66.4163 95.1533C68.18 94.623 69.6723 93.8398 70.8934 92.8038C72.1144 91.7678 73.0394 90.5714 73.6684 89.2147C74.2974 87.858 74.6119 86.4212 74.6119 84.9041V82.2401H77.9235V84.9041ZM78.7375 84.9041C78.7375 86.2978 79.0335 87.6299 79.6255 88.9002C80.2299 90.1582 81.1241 91.2744 82.3081 92.2488C83.5044 93.2231 84.9351 93.9816 86.6002 94.5243L84.4356 97.7064C82.5239 97.0527 80.8836 96.0969 79.5145 94.8388C78.1578 93.5808 77.128 92.1069 76.425 90.4172C75.722 88.7152 75.3705 86.8775 75.3705 84.9041V82.2401H78.7375V84.9041ZM124.359 92.8223H117.551V89.4737H124.359V92.8223ZM127.356 101.018H123.249V81.1301H127.356V101.018ZM116.053 101.85C118.421 101.85 120.456 102.103 122.158 102.609C123.872 103.102 125.186 103.83 126.098 104.792C127.011 105.742 127.467 106.883 127.467 108.215C127.467 109.547 127.011 110.687 126.098 111.637C125.186 112.587 123.872 113.308 122.158 113.802C120.456 114.307 118.421 114.573 116.053 114.597C113.709 114.573 111.68 114.307 109.966 113.802C108.264 113.308 106.951 112.587 106.026 111.637C105.113 110.687 104.657 109.547 104.657 108.215C104.657 106.883 105.113 105.742 106.026 104.792C106.951 103.83 108.264 103.102 109.966 102.609C111.68 102.103 113.709 101.85 116.053 101.85ZM116.053 104.996C114.511 104.996 113.191 105.119 112.094 105.366C110.996 105.6 110.163 105.958 109.596 106.439C109.029 106.92 108.745 107.512 108.745 108.215C108.745 108.881 109.029 109.454 109.596 109.935C110.163 110.416 110.996 110.786 112.094 111.045C113.191 111.292 114.511 111.415 116.053 111.415C117.619 111.415 118.945 111.292 120.03 111.045C121.128 110.786 121.954 110.416 122.509 109.935C123.077 109.454 123.36 108.881 123.36 108.215C123.36 107.512 123.077 106.92 122.509 106.439C121.954 105.958 121.128 105.6 120.03 105.366C118.945 105.119 117.619 104.996 116.053 104.996ZM110.817 86.8837C110.817 88.9927 110.447 90.9846 109.707 92.8593C108.979 94.7217 107.906 96.3559 106.488 97.7619C105.082 99.1679 103.386 100.222 101.4 100.925L99.2544 97.6509C101.006 97.0465 102.498 96.1894 103.731 95.0793C104.965 93.957 105.89 92.6866 106.507 91.2683C107.136 89.8499 107.45 88.3884 107.45 86.8837V84.4971H110.817V86.8837ZM111.631 86.8467C111.631 88.2404 111.927 89.5847 112.519 90.8797C113.124 92.1748 114.018 93.3403 115.202 94.3763C116.398 95.4 117.829 96.2017 119.494 96.7814L117.44 100.037C115.492 99.3714 113.833 98.3786 112.464 97.0589C111.095 95.7268 110.052 94.1851 109.337 92.4338C108.634 90.6701 108.283 88.8077 108.283 86.8467V84.4971H111.631V86.8467ZM118.569 86.6432H100.475V83.2946H118.569V86.6432Z" fill="currentColor"/>
</svg>
