<svg width="50" height="50" viewBox="0 0 50 50" fill="none" xmlns="http://www.w3.org/2000/svg">
<path d="M25.4991 37.3212L16.5314 42.6718C16.1352 42.9215 15.7211 43.0285 15.2889 42.9928C14.8567 42.9572 14.4786 42.8145 14.1544 42.5648C13.8303 42.3151 13.5782 42.0033 13.3981 41.6295C13.218 41.2557 13.182 40.8362 13.2901 40.3711L15.667 30.2584L7.72579 23.4632C7.36564 23.1422 7.14091 22.7762 7.05159 22.3653C6.96228 21.9543 6.98893 21.5534 7.13155 21.1624C7.27416 20.7715 7.49025 20.4505 7.77981 20.1993C8.06937 19.9482 8.46553 19.7877 8.9683 19.7178L19.4486 18.8082L23.5003 9.28414C23.6803 8.85609 23.9598 8.53506 24.3387 8.32103C24.7176 8.10701 25.1044 8 25.4991 8C25.8938 8 26.2806 8.10701 26.6595 8.32103C27.0383 8.53506 27.3178 8.85609 27.4979 9.28414L31.5496 18.8082L42.0299 19.7178C42.5341 19.7891 42.9302 19.9496 43.2183 20.1993C43.5065 20.449 43.7226 20.7701 43.8666 21.1624C44.0107 21.5548 44.038 21.9565 43.9487 22.3674C43.8594 22.7783 43.634 23.1436 43.2724 23.4632L35.3311 30.2584L37.7081 40.3711C37.8161 40.8348 37.7801 41.2543 37.6 41.6295C37.42 42.0048 37.1679 42.3165 36.8437 42.5648C36.5196 42.8131 36.1414 42.9557 35.7093 42.9928C35.2771 43.0299 34.8629 42.9229 34.4668 42.6718L25.4991 37.3212Z" fill="#58AFFF"/>
</svg>
