<svg width="409" height="206" viewBox="0 0 409 206" fill="none" xmlns="http://www.w3.org/2000/svg">
<mask id="path-1-outside-1_245_715" maskUnits="userSpaceOnUse" x="-0.171143" y="-0.170898" width="409" height="206" fill="black">
<rect fill="white" x="-0.171143" y="-0.170898" width="409" height="206"/>
<path d="M122.629 147.829H129.829V178.429H122.029V187.029H97.8289V178.429H90.2289V169.229H82.8289V160.629H76.0289V152.429H66.4289V160.629H59.6289V169.229H52.2289V178.429H44.4289V187.029H19.4289V178.429H11.6289V147.829H18.6289V139.229H26.2289V130.829H33.2289V123.029H40.0289V116.229H46.4289V19.8291H54.6289V11.6291H86.8289V19.8291H95.0289V116.229H101.229V123.029H108.229V130.829H115.229V139.229H122.629V147.829ZM151.629 11.6291H180.229V19.6291H188.029V185.829H180.229V193.829H151.629V185.829H143.829V19.6291H151.629V11.6291ZM261.565 89.0291V95.8291H254.165V103.229H246.365V110.629H238.165V118.029H213.365V110.629H205.965V86.2291H215.165V77.8291H224.565V69.8291H233.365V62.4291H242.165V47.6291H214.565V40.2291H207.165V18.8291H214.565V11.6291H315.565V18.8291H322.965V40.2291H315.565V47.6291H287.965V62.4291H296.565V69.8291H305.565V77.8291H314.765V86.2291H324.165V110.629H316.765V118.029H292.965V110.629H284.765V103.229H276.965V95.8291H269.365V89.0291H261.565ZM371.565 11.6291V19.6291H379.165V45.4291H390.965V52.6291H396.965V75.8291H390.965V83.0291H379.165V111.429H371.565V119.429H343.565V111.429H335.565V19.6291H343.565V11.6291H371.565ZM371.165 129.229V137.229H379.165V185.829H371.165V193.829H342.365V185.829H334.365V164.029H222.965V155.829H214.965V137.229H222.965V129.229H371.165Z"/>
</mask>
<path d="M122.629 147.829H129.829V178.429H122.029V187.029H97.8289V178.429H90.2289V169.229H82.8289V160.629H76.0289V152.429H66.4289V160.629H59.6289V169.229H52.2289V178.429H44.4289V187.029H19.4289V178.429H11.6289V147.829H18.6289V139.229H26.2289V130.829H33.2289V123.029H40.0289V116.229H46.4289V19.8291H54.6289V11.6291H86.8289V19.8291H95.0289V116.229H101.229V123.029H108.229V130.829H115.229V139.229H122.629V147.829ZM151.629 11.6291H180.229V19.6291H188.029V185.829H180.229V193.829H151.629V185.829H143.829V19.6291H151.629V11.6291ZM261.565 89.0291V95.8291H254.165V103.229H246.365V110.629H238.165V118.029H213.365V110.629H205.965V86.2291H215.165V77.8291H224.565V69.8291H233.365V62.4291H242.165V47.6291H214.565V40.2291H207.165V18.8291H214.565V11.6291H315.565V18.8291H322.965V40.2291H315.565V47.6291H287.965V62.4291H296.565V69.8291H305.565V77.8291H314.765V86.2291H324.165V110.629H316.765V118.029H292.965V110.629H284.765V103.229H276.965V95.8291H269.365V89.0291H261.565ZM371.565 11.6291V19.6291H379.165V45.4291H390.965V52.6291H396.965V75.8291H390.965V83.0291H379.165V111.429H371.565V119.429H343.565V111.429H335.565V19.6291H343.565V11.6291H371.565ZM371.165 129.229V137.229H379.165V185.829H371.165V193.829H342.365V185.829H334.365V164.029H222.965V155.829H214.965V137.229H222.965V129.229H371.165Z" fill="#FF9858"/>
<path d="M122.629 147.829H111V159.458H122.629V147.829ZM129.829 147.829H141.458V136.2H129.829V147.829ZM129.829 178.429V190.058H141.458V178.429H129.829ZM122.029 178.429V166.8H110.4V178.429H122.029ZM122.029 187.029V198.658H133.658V187.029H122.029ZM97.8289 187.029H86.2V198.658H97.8289V187.029ZM97.8289 178.429H109.458V166.8H97.8289V178.429ZM90.2289 178.429H78.6V190.058H90.2289V178.429ZM90.2289 169.229H101.858V157.6H90.2289V169.229ZM82.8289 169.229H71.2V180.858H82.8289V169.229ZM82.8289 160.629H94.4577V149H82.8289V160.629ZM76.0289 160.629H64.4V172.258H76.0289V160.629ZM76.0289 152.429H87.6577V140.8H76.0289V152.429ZM66.4289 152.429V140.8H54.8V152.429H66.4289ZM66.4289 160.629V172.258H78.0577V160.629H66.4289ZM59.6289 160.629V149H48V160.629H59.6289ZM59.6289 169.229V180.858H71.2577V169.229H59.6289ZM52.2289 169.229V157.6H40.6V169.229H52.2289ZM52.2289 178.429V190.058H63.8577V178.429H52.2289ZM44.4289 178.429V166.8H32.8V178.429H44.4289ZM44.4289 187.029V198.658H56.0577V187.029H44.4289ZM19.4289 187.029H7.79999V198.658H19.4289V187.029ZM19.4289 178.429H31.0577V166.8H19.4289V178.429ZM11.6289 178.429H-8.58307e-06V190.058H11.6289V178.429ZM11.6289 147.829V136.2H-8.58307e-06V147.829H11.6289ZM18.6289 147.829V159.458H30.2577V147.829H18.6289ZM18.6289 139.229V127.6H6.99999V139.229H18.6289ZM26.2289 139.229V150.858H37.8577V139.229H26.2289ZM26.2289 130.829V119.2H14.6V130.829H26.2289ZM33.2289 130.829V142.458H44.8577V130.829H33.2289ZM33.2289 123.029V111.4H21.6V123.029H33.2289ZM40.0289 123.029V134.658H51.6577V123.029H40.0289ZM40.0289 116.229V104.6H28.4V116.229H40.0289ZM46.4289 116.229V127.858H58.0577V116.229H46.4289ZM46.4289 19.8291V8.20023H34.8V19.8291H46.4289ZM54.6289 19.8291V31.458H66.2577V19.8291H54.6289ZM54.6289 11.6291V0.000225067H43V11.6291H54.6289ZM86.8289 11.6291H98.4577V0.000225067H86.8289V11.6291ZM86.8289 19.8291H75.2V31.458H86.8289V19.8291ZM95.0289 19.8291H106.658V8.20023H95.0289V19.8291ZM95.0289 116.229H83.4V127.858H95.0289V116.229ZM101.229 116.229H112.858V104.6H101.229V116.229ZM101.229 123.029H89.6V134.658H101.229V123.029ZM108.229 123.029H119.858V111.4H108.229V123.029ZM108.229 130.829H96.6V142.458H108.229V130.829ZM115.229 130.829H126.858V119.2H115.229V130.829ZM115.229 139.229H103.6V150.858H115.229V139.229ZM122.629 139.229H134.258V127.6H122.629V139.229ZM151.629 11.6291V0.000225067H140V11.6291H151.629ZM180.229 11.6291H191.858V0.000225067H180.229V11.6291ZM180.229 19.6291H168.6V31.258H180.229V19.6291ZM188.029 19.6291H199.658V8.00023H188.029V19.6291ZM188.029 185.829V197.458H199.658V185.829H188.029ZM180.229 185.829V174.2H168.6V185.829H180.229ZM180.229 193.829V205.458H191.858V193.829H180.229ZM151.629 193.829H140V205.458H151.629V193.829ZM151.629 185.829H163.258V174.2H151.629V185.829ZM143.829 185.829H132.2V197.458H143.829V185.829ZM143.829 19.6291V8.00023H132.2V19.6291H143.829ZM151.629 19.6291V31.258H163.258V19.6291H151.629ZM122.629 147.829V159.458H129.829V147.829V136.2H122.629V147.829ZM129.829 147.829H118.2V178.429H129.829H141.458V147.829H129.829ZM129.829 178.429V166.8H122.029V178.429V190.058H129.829V178.429ZM122.029 178.429H110.4V187.029H122.029H133.658V178.429H122.029ZM122.029 187.029V175.4H97.8289V187.029V198.658H122.029V187.029ZM97.8289 187.029H109.458V178.429H97.8289H86.2V187.029H97.8289ZM97.8289 178.429V166.8H90.2289V178.429V190.058H97.8289V178.429ZM90.2289 178.429H101.858V169.229H90.2289H78.6V178.429H90.2289ZM90.2289 169.229V157.6H82.8289V169.229V180.858H90.2289V169.229ZM82.8289 169.229H94.4577V160.629H82.8289H71.2V169.229H82.8289ZM82.8289 160.629V149H76.0289V160.629V172.258H82.8289V160.629ZM76.0289 160.629H87.6577V152.429H76.0289H64.4V160.629H76.0289ZM76.0289 152.429V140.8H66.4289V152.429V164.058H76.0289V152.429ZM66.4289 152.429H54.8V160.629H66.4289H78.0577V152.429H66.4289ZM66.4289 160.629V149H59.6289V160.629V172.258H66.4289V160.629ZM59.6289 160.629H48V169.229H59.6289H71.2577V160.629H59.6289ZM59.6289 169.229V157.6H52.2289V169.229V180.858H59.6289V169.229ZM52.2289 169.229H40.6V178.429H52.2289H63.8577V169.229H52.2289ZM52.2289 178.429V166.8H44.4289V178.429V190.058H52.2289V178.429ZM44.4289 178.429H32.8V187.029H44.4289H56.0577V178.429H44.4289ZM44.4289 187.029V175.4H19.4289V187.029V198.658H44.4289V187.029ZM19.4289 187.029H31.0577V178.429H19.4289H7.79999V187.029H19.4289ZM19.4289 178.429V166.8H11.6289V178.429V190.058H19.4289V178.429ZM11.6289 178.429H23.2577V147.829H11.6289H-8.58307e-06V178.429H11.6289ZM11.6289 147.829V159.458H18.6289V147.829V136.2H11.6289V147.829ZM18.6289 147.829H30.2577V139.229H18.6289H6.99999V147.829H18.6289ZM18.6289 139.229V150.858H26.2289V139.229V127.6H18.6289V139.229ZM26.2289 139.229H37.8577V130.829H26.2289H14.6V139.229H26.2289ZM26.2289 130.829V142.458H33.2289V130.829V119.2H26.2289V130.829ZM33.2289 130.829H44.8577V123.029H33.2289H21.6V130.829H33.2289ZM33.2289 123.029V134.658H40.0289V123.029V111.4H33.2289V123.029ZM40.0289 123.029H51.6577V116.229H40.0289H28.4V123.029H40.0289ZM40.0289 116.229V127.858H46.4289V116.229V104.6H40.0289V116.229ZM46.4289 116.229H58.0577V19.8291H46.4289H34.8V116.229H46.4289ZM46.4289 19.8291V31.458H54.6289V19.8291V8.20023H46.4289V19.8291ZM54.6289 19.8291H66.2577V11.6291H54.6289H43V19.8291H54.6289ZM54.6289 11.6291V23.258H86.8289V11.6291V0.000225067H54.6289V11.6291ZM86.8289 11.6291H75.2V19.8291H86.8289H98.4577V11.6291H86.8289ZM86.8289 19.8291V31.458H95.0289V19.8291V8.20023H86.8289V19.8291ZM95.0289 19.8291H83.4V116.229H95.0289H106.658V19.8291H95.0289ZM95.0289 116.229V127.858H101.229V116.229V104.6H95.0289V116.229ZM101.229 116.229H89.6V123.029H101.229H112.858V116.229H101.229ZM101.229 123.029V134.658H108.229V123.029V111.4H101.229V123.029ZM108.229 123.029H96.6V130.829H108.229H119.858V123.029H108.229ZM108.229 130.829V142.458H115.229V130.829V119.2H108.229V130.829ZM115.229 130.829H103.6V139.229H115.229H126.858V130.829H115.229ZM115.229 139.229V150.858H122.629V139.229V127.6H115.229V139.229ZM122.629 139.229H111V147.829H122.629H134.258V139.229H122.629ZM151.629 11.6291V23.258H180.229V11.6291V0.000225067H151.629V11.6291ZM180.229 11.6291H168.6V19.6291H180.229H191.858V11.6291H180.229ZM180.229 19.6291V31.258H188.029V19.6291V8.00023H180.229V19.6291ZM188.029 19.6291H176.4V185.829H188.029H199.658V19.6291H188.029ZM188.029 185.829V174.2H180.229V185.829V197.458H188.029V185.829ZM180.229 185.829H168.6V193.829H180.229H191.858V185.829H180.229ZM180.229 193.829V182.2H151.629V193.829V205.458H180.229V193.829ZM151.629 193.829H163.258V185.829H151.629H140V193.829H151.629ZM151.629 185.829V174.2H143.829V185.829V197.458H151.629V185.829ZM143.829 185.829H155.458V19.6291H143.829H132.2V185.829H143.829ZM143.829 19.6291V31.258H151.629V19.6291V8.00023H143.829V19.6291ZM151.629 19.6291H163.258V11.6291H151.629H140V19.6291H151.629ZM261.565 89.0291V77.4002H249.936V89.0291H261.565ZM261.565 95.8291V107.458H273.194V95.8291H261.565ZM254.165 95.8291V84.2002H242.536V95.8291H254.165ZM254.165 103.229V114.858H265.794V103.229H254.165ZM246.365 103.229V91.6002H234.736V103.229H246.365ZM246.365 110.629V122.258H257.994V110.629H246.365ZM238.165 110.629V99.0002H226.536V110.629H238.165ZM238.165 118.029V129.658H249.794V118.029H238.165ZM213.365 118.029H201.736V129.658H213.365V118.029ZM213.365 110.629H224.994V99.0002H213.365V110.629ZM205.965 110.629H194.336V122.258H205.965V110.629ZM205.965 86.2291V74.6002H194.336V86.2291H205.965ZM215.165 86.2291V97.858H226.794V86.2291H215.165ZM215.165 77.8291V66.2002H203.536V77.8291H215.165ZM224.565 77.8291V89.458H236.194V77.8291H224.565ZM224.565 69.8291V58.2002H212.936V69.8291H224.565ZM233.365 69.8291V81.458H244.994V69.8291H233.365ZM233.365 62.4291V50.8002H221.736V62.4291H233.365ZM242.165 62.4291V74.058H253.794V62.4291H242.165ZM242.165 47.6291H253.794V36.0002H242.165V47.6291ZM214.565 47.6291H202.936V59.258H214.565V47.6291ZM214.565 40.2291H226.194V28.6002H214.565V40.2291ZM207.165 40.2291H195.536V51.858H207.165V40.2291ZM207.165 18.8291V7.20023H195.536V18.8291H207.165ZM214.565 18.8291V30.458H226.194V18.8291H214.565ZM214.565 11.6291V0.000225067H202.936V11.6291H214.565ZM315.565 11.6291H327.194V0.000225067H315.565V11.6291ZM315.565 18.8291H303.936V30.458H315.565V18.8291ZM322.965 18.8291H334.594V7.20023H322.965V18.8291ZM322.965 40.2291V51.858H334.594V40.2291H322.965ZM315.565 40.2291V28.6002H303.936V40.2291H315.565ZM315.565 47.6291V59.258H327.194V47.6291H315.565ZM287.965 47.6291V36.0002H276.336V47.6291H287.965ZM287.965 62.4291H276.336V74.058H287.965V62.4291ZM296.565 62.4291H308.194V50.8002H296.565V62.4291ZM296.565 69.8291H284.936V81.458H296.565V69.8291ZM305.565 69.8291H317.194V58.2002H305.565V69.8291ZM305.565 77.8291H293.936V89.458H305.565V77.8291ZM314.765 77.8291H326.394V66.2002H314.765V77.8291ZM314.765 86.2291H303.136V97.858H314.765V86.2291ZM324.165 86.2291H335.794V74.6002H324.165V86.2291ZM324.165 110.629V122.258H335.794V110.629H324.165ZM316.765 110.629V99.0002H305.136V110.629H316.765ZM316.765 118.029V129.658H328.394V118.029H316.765ZM292.965 118.029H281.336V129.658H292.965V118.029ZM292.965 110.629H304.594V99.0002H292.965V110.629ZM284.765 110.629H273.136V122.258H284.765V110.629ZM284.765 103.229H296.394V91.6002H284.765V103.229ZM276.965 103.229H265.336V114.858H276.965V103.229ZM276.965 95.8291H288.594V84.2002H276.965V95.8291ZM269.365 95.8291H257.736V107.458H269.365V95.8291ZM269.365 89.0291H280.994V77.4002H269.365V89.0291ZM371.565 11.6291H383.194V0.000225067H371.565V11.6291ZM371.565 19.6291H359.936V31.258H371.565V19.6291ZM379.165 19.6291H390.794V8.00023H379.165V19.6291ZM379.165 45.4291H367.536V57.058H379.165V45.4291ZM390.965 45.4291H402.594V33.8002H390.965V45.4291ZM390.965 52.6291H379.336V64.258H390.965V52.6291ZM396.965 52.6291H408.594V41.0002H396.965V52.6291ZM396.965 75.8291V87.458H408.594V75.8291H396.965ZM390.965 75.8291V64.2002H379.336V75.8291H390.965ZM390.965 83.0291V94.658H402.594V83.0291H390.965ZM379.165 83.0291V71.4002H367.536V83.0291H379.165ZM379.165 111.429V123.058H390.794V111.429H379.165ZM371.565 111.429V99.8002H359.936V111.429H371.565ZM371.565 119.429V131.058H383.194V119.429H371.565ZM343.565 119.429H331.936V131.058H343.565V119.429ZM343.565 111.429H355.194V99.8002H343.565V111.429ZM335.565 111.429H323.936V123.058H335.565V111.429ZM335.565 19.6291V8.00023H323.936V19.6291H335.565ZM343.565 19.6291V31.258H355.194V19.6291H343.565ZM343.565 11.6291V0.000225067H331.936V11.6291H343.565ZM371.165 129.229H382.794V117.6H371.165V129.229ZM371.165 137.229H359.536V148.858H371.165V137.229ZM379.165 137.229H390.794V125.6H379.165V137.229ZM379.165 185.829V197.458H390.794V185.829H379.165ZM371.165 185.829V174.2H359.536V185.829H371.165ZM371.165 193.829V205.458H382.794V193.829H371.165ZM342.365 193.829H330.736V205.458H342.365V193.829ZM342.365 185.829H353.994V174.2H342.365V185.829ZM334.365 185.829H322.736V197.458H334.365V185.829ZM334.365 164.029H345.994V152.4H334.365V164.029ZM222.965 164.029H211.336V175.658H222.965V164.029ZM222.965 155.829H234.594V144.2H222.965V155.829ZM214.965 155.829H203.336V167.458H214.965V155.829ZM214.965 137.229V125.6H203.336V137.229H214.965ZM222.965 137.229V148.858H234.594V137.229H222.965ZM222.965 129.229V117.6H211.336V129.229H222.965ZM261.565 89.0291H249.936V95.8291H261.565H273.194V89.0291H261.565ZM261.565 95.8291V84.2002H254.165V95.8291V107.458H261.565V95.8291ZM254.165 95.8291H242.536V103.229H254.165H265.794V95.8291H254.165ZM254.165 103.229V91.6002H246.365V103.229V114.858H254.165V103.229ZM246.365 103.229H234.736V110.629H246.365H257.994V103.229H246.365ZM246.365 110.629V99.0002H238.165V110.629V122.258H246.365V110.629ZM238.165 110.629H226.536V118.029H238.165H249.794V110.629H238.165ZM238.165 118.029V106.4H213.365V118.029V129.658H238.165V118.029ZM213.365 118.029H224.994V110.629H213.365H201.736V118.029H213.365ZM213.365 110.629V99.0002H205.965V110.629V122.258H213.365V110.629ZM205.965 110.629H217.594V86.2291H205.965H194.336V110.629H205.965ZM205.965 86.2291V97.858H215.165V86.2291V74.6002H205.965V86.2291ZM215.165 86.2291H226.794V77.8291H215.165H203.536V86.2291H215.165ZM215.165 77.8291V89.458H224.565V77.8291V66.2002H215.165V77.8291ZM224.565 77.8291H236.194V69.8291H224.565H212.936V77.8291H224.565ZM224.565 69.8291V81.458H233.365V69.8291V58.2002H224.565V69.8291ZM233.365 69.8291H244.994V62.4291H233.365H221.736V69.8291H233.365ZM233.365 62.4291V74.058H242.165V62.4291V50.8002H233.365V62.4291ZM242.165 62.4291H253.794V47.6291H242.165H230.536V62.4291H242.165ZM242.165 47.6291V36.0002H214.565V47.6291V59.258H242.165V47.6291ZM214.565 47.6291H226.194V40.2291H214.565H202.936V47.6291H214.565ZM214.565 40.2291V28.6002H207.165V40.2291V51.858H214.565V40.2291ZM207.165 40.2291H218.794V18.8291H207.165H195.536V40.2291H207.165ZM207.165 18.8291V30.458H214.565V18.8291V7.20023H207.165V18.8291ZM214.565 18.8291H226.194V11.6291H214.565H202.936V18.8291H214.565ZM214.565 11.6291V23.258H315.565V11.6291V0.000225067H214.565V11.6291ZM315.565 11.6291H303.936V18.8291H315.565H327.194V11.6291H315.565ZM315.565 18.8291V30.458H322.965V18.8291V7.20023H315.565V18.8291ZM322.965 18.8291H311.336V40.2291H322.965H334.594V18.8291H322.965ZM322.965 40.2291V28.6002H315.565V40.2291V51.858H322.965V40.2291ZM315.565 40.2291H303.936V47.6291H315.565H327.194V40.2291H315.565ZM315.565 47.6291V36.0002H287.965V47.6291V59.258H315.565V47.6291ZM287.965 47.6291H276.336V62.4291H287.965H299.594V47.6291H287.965ZM287.965 62.4291V74.058H296.565V62.4291V50.8002H287.965V62.4291ZM296.565 62.4291H284.936V69.8291H296.565H308.194V62.4291H296.565ZM296.565 69.8291V81.458H305.565V69.8291V58.2002H296.565V69.8291ZM305.565 69.8291H293.936V77.8291H305.565H317.194V69.8291H305.565ZM305.565 77.8291V89.458H314.765V77.8291V66.2002H305.565V77.8291ZM314.765 77.8291H303.136V86.2291H314.765H326.394V77.8291H314.765ZM314.765 86.2291V97.858H324.165V86.2291V74.6002H314.765V86.2291ZM324.165 86.2291H312.536V110.629H324.165H335.794V86.2291H324.165ZM324.165 110.629V99.0002H316.765V110.629V122.258H324.165V110.629ZM316.765 110.629H305.136V118.029H316.765H328.394V110.629H316.765ZM316.765 118.029V106.4H292.965V118.029V129.658H316.765V118.029ZM292.965 118.029H304.594V110.629H292.965H281.336V118.029H292.965ZM292.965 110.629V99.0002H284.765V110.629V122.258H292.965V110.629ZM284.765 110.629H296.394V103.229H284.765H273.136V110.629H284.765ZM284.765 103.229V91.6002H276.965V103.229V114.858H284.765V103.229ZM276.965 103.229H288.594V95.8291H276.965H265.336V103.229H276.965ZM276.965 95.8291V84.2002H269.365V95.8291V107.458H276.965V95.8291ZM269.365 95.8291H280.994V89.0291H269.365H257.736V95.8291H269.365ZM269.365 89.0291V77.4002H261.565V89.0291V100.658H269.365V89.0291ZM371.565 11.6291H359.936V19.6291H371.565H383.194V11.6291H371.565ZM371.565 19.6291V31.258H379.165V19.6291V8.00023H371.565V19.6291ZM379.165 19.6291H367.536V45.4291H379.165H390.794V19.6291H379.165ZM379.165 45.4291V57.058H390.965V45.4291V33.8002H379.165V45.4291ZM390.965 45.4291H379.336V52.6291H390.965H402.594V45.4291H390.965ZM390.965 52.6291V64.258H396.965V52.6291V41.0002H390.965V52.6291ZM396.965 52.6291H385.336V75.8291H396.965H408.594V52.6291H396.965ZM396.965 75.8291V64.2002H390.965V75.8291V87.458H396.965V75.8291ZM390.965 75.8291H379.336V83.0291H390.965H402.594V75.8291H390.965ZM390.965 83.0291V71.4002H379.165V83.0291V94.658H390.965V83.0291ZM379.165 83.0291H367.536V111.429H379.165H390.794V83.0291H379.165ZM379.165 111.429V99.8002H371.565V111.429V123.058H379.165V111.429ZM371.565 111.429H359.936V119.429H371.565H383.194V111.429H371.565ZM371.565 119.429V107.8H343.565V119.429V131.058H371.565V119.429ZM343.565 119.429H355.194V111.429H343.565H331.936V119.429H343.565ZM343.565 111.429V99.8002H335.565V111.429V123.058H343.565V111.429ZM335.565 111.429H347.194V19.6291H335.565H323.936V111.429H335.565ZM335.565 19.6291V31.258H343.565V19.6291V8.00023H335.565V19.6291ZM343.565 19.6291H355.194V11.6291H343.565H331.936V19.6291H343.565ZM343.565 11.6291V23.258H371.565V11.6291V0.000225067H343.565V11.6291ZM371.165 129.229H359.536V137.229H371.165H382.794V129.229H371.165ZM371.165 137.229V148.858H379.165V137.229V125.6H371.165V137.229ZM379.165 137.229H367.536V185.829H379.165H390.794V137.229H379.165ZM379.165 185.829V174.2H371.165V185.829V197.458H379.165V185.829ZM371.165 185.829H359.536V193.829H371.165H382.794V185.829H371.165ZM371.165 193.829V182.2H342.365V193.829V205.458H371.165V193.829ZM342.365 193.829H353.994V185.829H342.365H330.736V193.829H342.365ZM342.365 185.829V174.2H334.365V185.829V197.458H342.365V185.829ZM334.365 185.829H345.994V164.029H334.365H322.736V185.829H334.365ZM334.365 164.029V152.4H222.965V164.029V175.658H334.365V164.029ZM222.965 164.029H234.594V155.829H222.965H211.336V164.029H222.965ZM222.965 155.829V144.2H214.965V155.829V167.458H222.965V155.829ZM214.965 155.829H226.594V137.229H214.965H203.336V155.829H214.965ZM214.965 137.229V148.858H222.965V137.229V125.6H214.965V137.229ZM222.965 137.229H234.594V129.229H222.965H211.336V137.229H222.965ZM222.965 129.229V140.858H371.165V129.229V117.6H222.965V129.229Z" fill="#D56300" mask="url(#path-1-outside-1_245_715)"/>
</svg>
