<svg width="154" height="201" viewBox="0 0 154 201" fill="none" xmlns="http://www.w3.org/2000/svg">
<mask id="path-1-outside-1_245_622" maskUnits="userSpaceOnUse" x="-0.571106" y="-0.571289" width="154" height="202" fill="black">
<rect fill="white" x="-0.571106" y="-0.571289" width="154" height="202"/>
<path d="M122.229 21.0287V30.8287H132.429V41.2287H141.629V83.8287H132.829V94.2287H124.829V106.429H132.829V116.829H141.629V159.429H132.429V169.829H122.229V179.429H111.229V189.029H20.6289V180.429H11.6289V156.629H20.6289V148.429H85.2289V139.829H92.6289V129.029H85.2289V120.629H35.2289V112.229H26.2289V88.4287H35.2289V79.8287H85.2289V71.4287H92.6289V60.4287H85.2289V52.2287H20.6289V43.6287H11.6289V20.4287H20.6289V11.6287H111.229V21.0287H122.229Z"/>
</mask>
<path d="M122.229 21.0287V30.8287H132.429V41.2287H141.629V83.8287H132.829V94.2287H124.829V106.429H132.829V116.829H141.629V159.429H132.429V169.829H122.229V179.429H111.229V189.029H20.6289V180.429H11.6289V156.629H20.6289V148.429H85.2289V139.829H92.6289V129.029H85.2289V120.629H35.2289V112.229H26.2289V88.4287H35.2289V79.8287H85.2289V71.4287H92.6289V60.4287H85.2289V52.2287H20.6289V43.6287H11.6289V20.4287H20.6289V11.6287H111.229V21.0287H122.229Z" fill="#58AFFF"/>
<path d="M122.229 21.0287H133.858V9.39984H122.229V21.0287ZM122.229 30.8287H110.6V42.4576H122.229V30.8287ZM132.429 30.8287H144.058V19.1998H132.429V30.8287ZM132.429 41.2287H120.8V52.8576H132.429V41.2287ZM141.629 41.2287H153.258V29.5998H141.629V41.2287ZM141.629 83.8287V95.4576H153.258V83.8287H141.629ZM132.829 83.8287V72.1998H121.2V83.8287H132.829ZM132.829 94.2287V105.858H144.458V94.2287H132.829ZM124.829 94.2287V82.5998H113.2V94.2287H124.829ZM124.829 106.429H113.2V118.058H124.829V106.429ZM132.829 106.429H144.458V94.7998H132.829V106.429ZM132.829 116.829H121.2V128.458H132.829V116.829ZM141.629 116.829H153.258V105.2H141.629V116.829ZM141.629 159.429V171.058H153.258V159.429H141.629ZM132.429 159.429V147.8H120.8V159.429H132.429ZM132.429 169.829V181.458H144.058V169.829H132.429ZM122.229 169.829V158.2H110.6V169.829H122.229ZM122.229 179.429V191.058H133.858V179.429H122.229ZM111.229 179.429V167.8H99.6V179.429H111.229ZM111.229 189.029V200.658H122.858V189.029H111.229ZM20.6289 189.029H9.00003V200.658H20.6289V189.029ZM20.6289 180.429H32.2578V168.8H20.6289V180.429ZM11.6289 180.429H2.84016e-05V192.058H11.6289V180.429ZM11.6289 156.629V145H2.84016e-05V156.629H11.6289ZM20.6289 156.629V168.258H32.2578V156.629H20.6289ZM20.6289 148.429V136.8H9.00003V148.429H20.6289ZM85.2289 148.429V160.058H96.8578V148.429H85.2289ZM85.2289 139.829V128.2H73.6V139.829H85.2289ZM92.6289 139.829V151.458H104.258V139.829H92.6289ZM92.6289 129.029H104.258V117.4H92.6289V129.029ZM85.2289 129.029H73.6V140.658H85.2289V129.029ZM85.2289 120.629H96.8578V109H85.2289V120.629ZM35.2289 120.629H23.6V132.258H35.2289V120.629ZM35.2289 112.229H46.8578V100.6H35.2289V112.229ZM26.2289 112.229H14.6V123.858H26.2289V112.229ZM26.2289 88.4287V76.7998H14.6V88.4287H26.2289ZM35.2289 88.4287V100.058H46.8578V88.4287H35.2289ZM35.2289 79.8287V68.1998H23.6V79.8287H35.2289ZM85.2289 79.8287V91.4576H96.8578V79.8287H85.2289ZM85.2289 71.4287V59.7998H73.6V71.4287H85.2289ZM92.6289 71.4287V83.0576H104.258V71.4287H92.6289ZM92.6289 60.4287H104.258V48.7998H92.6289V60.4287ZM85.2289 60.4287H73.6V72.0576H85.2289V60.4287ZM85.2289 52.2287H96.8578V40.5998H85.2289V52.2287ZM20.6289 52.2287H9.00003V63.8576H20.6289V52.2287ZM20.6289 43.6287H32.2578V31.9998H20.6289V43.6287ZM11.6289 43.6287H2.84016e-05V55.2576H11.6289V43.6287ZM11.6289 20.4287V8.79983H2.84016e-05V20.4287H11.6289ZM20.6289 20.4287V32.0576H32.2578V20.4287H20.6289ZM20.6289 11.6287V-0.00015974H9.00003V11.6287H20.6289ZM111.229 11.6287H122.858V-0.00015974H111.229V11.6287ZM111.229 21.0287H99.6V32.6576H111.229V21.0287ZM122.229 21.0287H110.6V30.8287H122.229H133.858V21.0287H122.229ZM122.229 30.8287V42.4576H132.429V30.8287V19.1998H122.229V30.8287ZM132.429 30.8287H120.8V41.2287H132.429H144.058V30.8287H132.429ZM132.429 41.2287V52.8576H141.629V41.2287V29.5998H132.429V41.2287ZM141.629 41.2287H130V83.8287H141.629H153.258V41.2287H141.629ZM141.629 83.8287V72.1998H132.829V83.8287V95.4576H141.629V83.8287ZM132.829 83.8287H121.2V94.2287H132.829H144.458V83.8287H132.829ZM132.829 94.2287V82.5998H124.829V94.2287V105.858H132.829V94.2287ZM124.829 94.2287H113.2V106.429H124.829H136.458V94.2287H124.829ZM124.829 106.429V118.058H132.829V106.429V94.7998H124.829V106.429ZM132.829 106.429H121.2V116.829H132.829H144.458V106.429H132.829ZM132.829 116.829V128.458H141.629V116.829V105.2H132.829V116.829ZM141.629 116.829H130V159.429H141.629H153.258V116.829H141.629ZM141.629 159.429V147.8H132.429V159.429V171.058H141.629V159.429ZM132.429 159.429H120.8V169.829H132.429H144.058V159.429H132.429ZM132.429 169.829V158.2H122.229V169.829V181.458H132.429V169.829ZM122.229 169.829H110.6V179.429H122.229H133.858V169.829H122.229ZM122.229 179.429V167.8H111.229V179.429V191.058H122.229V179.429ZM111.229 179.429H99.6V189.029H111.229H122.858V179.429H111.229ZM111.229 189.029V177.4H20.6289V189.029V200.658H111.229V189.029ZM20.6289 189.029H32.2578V180.429H20.6289H9.00003V189.029H20.6289ZM20.6289 180.429V168.8H11.6289V180.429V192.058H20.6289V180.429ZM11.6289 180.429H23.2578V156.629H11.6289H2.84016e-05V180.429H11.6289ZM11.6289 156.629V168.258H20.6289V156.629V145H11.6289V156.629ZM20.6289 156.629H32.2578V148.429H20.6289H9.00003V156.629H20.6289ZM20.6289 148.429V160.058H85.2289V148.429V136.8H20.6289V148.429ZM85.2289 148.429H96.8578V139.829H85.2289H73.6V148.429H85.2289ZM85.2289 139.829V151.458H92.6289V139.829V128.2H85.2289V139.829ZM92.6289 139.829H104.258V129.029H92.6289H81V139.829H92.6289ZM92.6289 129.029V117.4H85.2289V129.029V140.658H92.6289V129.029ZM85.2289 129.029H96.8578V120.629H85.2289H73.6V129.029H85.2289ZM85.2289 120.629V109H35.2289V120.629V132.258H85.2289V120.629ZM35.2289 120.629H46.8578V112.229H35.2289H23.6V120.629H35.2289ZM35.2289 112.229V100.6H26.2289V112.229V123.858H35.2289V112.229ZM26.2289 112.229H37.8578V88.4287H26.2289H14.6V112.229H26.2289ZM26.2289 88.4287V100.058H35.2289V88.4287V76.7998H26.2289V88.4287ZM35.2289 88.4287H46.8578V79.8287H35.2289H23.6V88.4287H35.2289ZM35.2289 79.8287V91.4576H85.2289V79.8287V68.1998H35.2289V79.8287ZM85.2289 79.8287H96.8578V71.4287H85.2289H73.6V79.8287H85.2289ZM85.2289 71.4287V83.0576H92.6289V71.4287V59.7998H85.2289V71.4287ZM92.6289 71.4287H104.258V60.4287H92.6289H81V71.4287H92.6289ZM92.6289 60.4287V48.7998H85.2289V60.4287V72.0576H92.6289V60.4287ZM85.2289 60.4287H96.8578V52.2287H85.2289H73.6V60.4287H85.2289ZM85.2289 52.2287V40.5998H20.6289V52.2287V63.8576H85.2289V52.2287ZM20.6289 52.2287H32.2578V43.6287H20.6289H9.00003V52.2287H20.6289ZM20.6289 43.6287V31.9998H11.6289V43.6287V55.2576H20.6289V43.6287ZM11.6289 43.6287H23.2578V20.4287H11.6289H2.84016e-05V43.6287H11.6289ZM11.6289 20.4287V32.0576H20.6289V20.4287V8.79983H11.6289V20.4287ZM20.6289 20.4287H32.2578V11.6287H20.6289H9.00003V20.4287H20.6289ZM20.6289 11.6287V23.2576H111.229V11.6287V-0.00015974H20.6289V11.6287ZM111.229 11.6287H99.6V21.0287H111.229H122.858V11.6287H111.229ZM111.229 21.0287V32.6576H122.229V21.0287V9.39984H111.229V21.0287Z" fill="#2F82FF" mask="url(#path-1-outside-1_245_622)"/>
</svg>
