<svg width="149" height="201" viewBox="0 0 149 201" fill="none" xmlns="http://www.w3.org/2000/svg">
<mask id="path-1-outside-1_245_653" maskUnits="userSpaceOnUse" x="-0.371094" y="-0.571289" width="149" height="202" fill="black">
<rect fill="white" x="-0.371094" y="-0.571289" width="149" height="202"/>
<path d="M34.0289 115.829H45.2289V105.629H56.2289V96.0287H66.2289V86.6287H74.8289V77.6287H83.2289V61.0287H74.2289V52.4287H21.0289V43.8287H11.6289V20.0287H21.0289V11.6287H102.429V19.6287H112.829V29.4287H123.029V39.6287H132.229V96.6287H122.029V108.029H111.429V119.229H100.429V130.029H89.0289V139.829H77.0289V148.229H127.829V156.429H136.629V180.229H127.829V189.029H21.0289V180.229H11.6289V137.029H22.8289V126.229H34.0289V115.829Z"/>
</mask>
<path d="M34.0289 115.829H45.2289V105.629H56.2289V96.0287H66.2289V86.6287H74.8289V77.6287H83.2289V61.0287H74.2289V52.4287H21.0289V43.8287H11.6289V20.0287H21.0289V11.6287H102.429V19.6287H112.829V29.4287H123.029V39.6287H132.229V96.6287H122.029V108.029H111.429V119.229H100.429V130.029H89.0289V139.829H77.0289V148.229H127.829V156.429H136.629V180.229H127.829V189.029H21.0289V180.229H11.6289V137.029H22.8289V126.229H34.0289V115.829Z" fill="#7DFF99"/>
<path d="M34.0289 115.829V104.2H22.4V115.829H34.0289ZM45.2289 115.829V127.458H56.8578V115.829H45.2289ZM45.2289 105.629V93.9998H33.6V105.629H45.2289ZM56.2289 105.629V117.258H67.8578V105.629H56.2289ZM56.2289 96.0287V84.3998H44.6V96.0287H56.2289ZM66.2289 96.0287V107.658H77.8578V96.0287H66.2289ZM66.2289 86.6287V74.9998H54.6V86.6287H66.2289ZM74.8289 86.6287V98.2576H86.4578V86.6287H74.8289ZM74.8289 77.6287V65.9998H63.2V77.6287H74.8289ZM83.2289 77.6287V89.2576H94.8578V77.6287H83.2289ZM83.2289 61.0287H94.8578V49.3998H83.2289V61.0287ZM74.2289 61.0287H62.6V72.6576H74.2289V61.0287ZM74.2289 52.4287H85.8578V40.7998H74.2289V52.4287ZM21.0289 52.4287H9.40004V64.0576H21.0289V52.4287ZM21.0289 43.8287H32.6578V32.1998H21.0289V43.8287ZM11.6289 43.8287H4.01139e-05V55.4576H11.6289V43.8287ZM11.6289 20.0287V8.39984H4.01139e-05V20.0287H11.6289ZM21.0289 20.0287V31.6576H32.6578V20.0287H21.0289ZM21.0289 11.6287V-0.00015974H9.40004V11.6287H21.0289ZM102.429 11.6287H114.058V-0.00015974H102.429V11.6287ZM102.429 19.6287H90.8V31.2576H102.429V19.6287ZM112.829 19.6287H124.458V7.99983H112.829V19.6287ZM112.829 29.4287H101.2V41.0576H112.829V29.4287ZM123.029 29.4287H134.658V17.7998H123.029V29.4287ZM123.029 39.6287H111.4V51.2576H123.029V39.6287ZM132.229 39.6287H143.858V27.9998H132.229V39.6287ZM132.229 96.6287V108.258H143.858V96.6287H132.229ZM122.029 96.6287V84.9998H110.4V96.6287H122.029ZM122.029 108.029V119.658H133.658V108.029H122.029ZM111.429 108.029V96.3998H99.8V108.029H111.429ZM111.429 119.229V130.858H123.058V119.229H111.429ZM100.429 119.229V107.6H88.8V119.229H100.429ZM100.429 130.029V141.658H112.058V130.029H100.429ZM89.0289 130.029V118.4H77.4V130.029H89.0289ZM89.0289 139.829V151.458H100.658V139.829H89.0289ZM77.0289 139.829V128.2H65.4V139.829H77.0289ZM77.0289 148.229H65.4V159.858H77.0289V148.229ZM127.829 148.229H139.458V136.6H127.829V148.229ZM127.829 156.429H116.2V168.058H127.829V156.429ZM136.629 156.429H148.258V144.8H136.629V156.429ZM136.629 180.229V191.858H148.258V180.229H136.629ZM127.829 180.229V168.6H116.2V180.229H127.829ZM127.829 189.029V200.658H139.458V189.029H127.829ZM21.0289 189.029H9.40004V200.658H21.0289V189.029ZM21.0289 180.229H32.6578V168.6H21.0289V180.229ZM11.6289 180.229H4.01139e-05V191.858H11.6289V180.229ZM11.6289 137.029V125.4H4.01139e-05V137.029H11.6289ZM22.8289 137.029V148.658H34.4578V137.029H22.8289ZM22.8289 126.229V114.6H11.2V126.229H22.8289ZM34.0289 126.229V137.858H45.6578V126.229H34.0289ZM34.0289 115.829V127.458H45.2289V115.829V104.2H34.0289V115.829ZM45.2289 115.829H56.8578V105.629H45.2289H33.6V115.829H45.2289ZM45.2289 105.629V117.258H56.2289V105.629V93.9998H45.2289V105.629ZM56.2289 105.629H67.8578V96.0287H56.2289H44.6V105.629H56.2289ZM56.2289 96.0287V107.658H66.2289V96.0287V84.3998H56.2289V96.0287ZM66.2289 96.0287H77.8578V86.6287H66.2289H54.6V96.0287H66.2289ZM66.2289 86.6287V98.2576H74.8289V86.6287V74.9998H66.2289V86.6287ZM74.8289 86.6287H86.4578V77.6287H74.8289H63.2V86.6287H74.8289ZM74.8289 77.6287V89.2576H83.2289V77.6287V65.9998H74.8289V77.6287ZM83.2289 77.6287H94.8578V61.0287H83.2289H71.6V77.6287H83.2289ZM83.2289 61.0287V49.3998H74.2289V61.0287V72.6576H83.2289V61.0287ZM74.2289 61.0287H85.8578V52.4287H74.2289H62.6V61.0287H74.2289ZM74.2289 52.4287V40.7998H21.0289V52.4287V64.0576H74.2289V52.4287ZM21.0289 52.4287H32.6578V43.8287H21.0289H9.40004V52.4287H21.0289ZM21.0289 43.8287V32.1998H11.6289V43.8287V55.4576H21.0289V43.8287ZM11.6289 43.8287H23.2578V20.0287H11.6289H4.01139e-05V43.8287H11.6289ZM11.6289 20.0287V31.6576H21.0289V20.0287V8.39984H11.6289V20.0287ZM21.0289 20.0287H32.6578V11.6287H21.0289H9.40004V20.0287H21.0289ZM21.0289 11.6287V23.2576H102.429V11.6287V-0.00015974H21.0289V11.6287ZM102.429 11.6287H90.8V19.6287H102.429H114.058V11.6287H102.429ZM102.429 19.6287V31.2576H112.829V19.6287V7.99983H102.429V19.6287ZM112.829 19.6287H101.2V29.4287H112.829H124.458V19.6287H112.829ZM112.829 29.4287V41.0576H123.029V29.4287V17.7998H112.829V29.4287ZM123.029 29.4287H111.4V39.6287H123.029H134.658V29.4287H123.029ZM123.029 39.6287V51.2576H132.229V39.6287V27.9998H123.029V39.6287ZM132.229 39.6287H120.6V96.6287H132.229H143.858V39.6287H132.229ZM132.229 96.6287V84.9998H122.029V96.6287V108.258H132.229V96.6287ZM122.029 96.6287H110.4V108.029H122.029H133.658V96.6287H122.029ZM122.029 108.029V96.3998H111.429V108.029V119.658H122.029V108.029ZM111.429 108.029H99.8V119.229H111.429H123.058V108.029H111.429ZM111.429 119.229V107.6H100.429V119.229V130.858H111.429V119.229ZM100.429 119.229H88.8V130.029H100.429H112.058V119.229H100.429ZM100.429 130.029V118.4H89.0289V130.029V141.658H100.429V130.029ZM89.0289 130.029H77.4V139.829H89.0289H100.658V130.029H89.0289ZM89.0289 139.829V128.2H77.0289V139.829V151.458H89.0289V139.829ZM77.0289 139.829H65.4V148.229H77.0289H88.6578V139.829H77.0289ZM77.0289 148.229V159.858H127.829V148.229V136.6H77.0289V148.229ZM127.829 148.229H116.2V156.429H127.829H139.458V148.229H127.829ZM127.829 156.429V168.058H136.629V156.429V144.8H127.829V156.429ZM136.629 156.429H125V180.229H136.629H148.258V156.429H136.629ZM136.629 180.229V168.6H127.829V180.229V191.858H136.629V180.229ZM127.829 180.229H116.2V189.029H127.829H139.458V180.229H127.829ZM127.829 189.029V177.4H21.0289V189.029V200.658H127.829V189.029ZM21.0289 189.029H32.6578V180.229H21.0289H9.40004V189.029H21.0289ZM21.0289 180.229V168.6H11.6289V180.229V191.858H21.0289V180.229ZM11.6289 180.229H23.2578V137.029H11.6289H4.01139e-05V180.229H11.6289ZM11.6289 137.029V148.658H22.8289V137.029V125.4H11.6289V137.029ZM22.8289 137.029H34.4578V126.229H22.8289H11.2V137.029H22.8289ZM22.8289 126.229V137.858H34.0289V126.229V114.6H22.8289V126.229ZM34.0289 126.229H45.6578V115.829H34.0289H22.4V126.229H34.0289Z" fill="#0FDB2E" mask="url(#path-1-outside-1_245_653)"/>
</svg>
