<svg width="49" height="49" viewBox="0 0 49 49" fill="none" xmlns="http://www.w3.org/2000/svg">
<g clip-path="url(#clip0_245_3346)">
<path d="M14.1953 10.737C13.6739 10.2155 12.9666 9.92255 12.2292 9.92255C11.4917 9.92255 10.7845 10.2155 10.263 10.737C9.74159 11.2584 9.44864 11.9657 9.44864 12.7031C9.44864 13.4406 9.74159 14.1478 10.263 14.6693L20.0938 24.5L10.263 34.3307C9.74159 34.8522 9.44864 35.5594 9.44864 36.2969C9.44864 37.0343 9.74159 37.7416 10.263 38.263C10.7845 38.7845 11.4917 39.0775 12.2292 39.0775C12.9666 39.0775 13.6739 38.7845 14.1953 38.263L24.0261 28.4323L33.8568 38.263C34.3783 38.7845 35.0855 39.0775 35.823 39.0775C36.5604 39.0775 37.2677 38.7845 37.7891 38.263C38.3106 37.7416 38.6036 37.0343 38.6036 36.2969C38.6036 35.5595 38.3106 34.8522 37.7891 34.3307L27.9584 24.5L37.7891 14.6693C38.3106 14.1478 38.6036 13.4405 38.6036 12.7031C38.6036 11.9657 38.3106 11.2584 37.7891 10.737C37.2677 10.2155 36.5604 9.92255 35.823 9.92255C35.0855 9.92254 34.3783 10.2155 33.8568 10.737L24.0261 20.5677L14.1953 10.737Z" fill="black"/>
</g>
<defs>
<clipPath id="clip0_245_3346">
<rect width="49" height="49" fill="white"/>
</clipPath>
</defs>
</svg>
